%
M48
M72
T01C0.01181
T02C0.01575
T03C0.01969
T04C0.02362
T05C0.03600
T06C0.04000
T07C0.11024
%
T01
X68190Y82630
X80690Y82630
X79642Y92732
X88190Y95130
X98095Y94933
X105595Y94933
X112095Y94933
X118095Y94933
X121595Y97933
X127595Y93433
X135690Y90130
X138190Y80130
X155190Y85630
X170190Y87630
X190690Y80130
X195690Y85130
X205690Y87630
X213190Y80130
X185190Y101130
X185190Y106130
X177690Y101130
X170190Y101130
X165190Y101130
X160190Y101130
X155190Y101130
X150190Y101130
X150190Y106130
X152690Y111130
X146095Y113433
X146095Y117933
X142434Y118189
X139284Y118189
X136135Y118189
X145595Y123933
X152690Y126130
X152690Y131130
X152690Y136130
X152690Y141130
X144095Y140433
X137595Y141433
X138095Y137433
X131095Y141433
X124595Y141433
X117095Y141433
X123190Y147630
X130690Y147630
X145690Y147630
X163190Y137630
X173190Y130130
X185190Y131130
X185190Y136130
X178190Y140130
X185690Y145130
X182190Y155630
X176690Y161130
X171190Y159630
X166690Y164130
X161690Y178630
X179690Y179130
X187690Y171630
X196690Y162630
X203690Y156630
X215690Y156630
X204690Y144130
X199690Y143130
X202690Y132630
X200190Y125130
X208690Y118630
X204190Y112630
X185190Y111130
X185190Y116130
X180690Y117630
X185190Y121130
X185190Y126130
X163190Y122630
X152690Y121130
X152690Y116130
X160690Y107630
X173190Y110130
X121595Y103933
X114095Y101933
X111595Y106933
X96595Y117933
X98095Y130433
X81690Y131630
X68190Y135130
X64323Y149144
X64323Y169144
X84323Y181644
X96095Y189933
X101190Y184130
X107690Y184130
X114690Y184130
X111595Y191433
X114095Y196433
X111095Y199433
X117095Y202933
X124595Y205433
X127595Y208933
X130095Y211933
X134095Y212933
X134095Y208933
X130095Y205433
X134095Y204933
X124595Y211933
X119095Y208933
X112095Y210433
X117095Y215433
X109595Y222933
X96095Y220933
X96095Y225433
X89323Y226644
X98323Y232644
X98323Y240144
X85823Y245144
X76823Y241644
X64323Y236644
X76823Y226644
X64323Y224144
X81823Y214144
X96095Y199933
X81823Y199144
X64323Y186644
X94690Y164130
X94690Y154130
X112690Y154130
X112690Y159130
X112690Y164130
X121190Y169630
X116190Y175630
X128190Y164630
X144190Y164630
X135190Y179630
X136190Y191630
X133595Y222933
X139323Y229144
X135823Y240144
X135823Y252644
X98323Y252644
X95823Y257644
X83323Y252644
X64323Y249144
X173323Y252644
X190823Y235144
X203323Y247644
X220823Y235144
X215690Y221630
X203690Y221130
X204190Y206130
X216190Y206130
X240823Y197644
X243323Y202644
X255823Y210144
X262536Y208402
X262536Y215902
X262536Y220902
X255823Y222644
X243323Y222644
X243323Y212644
X275036Y213402
X280036Y218402
X275036Y220902
X282536Y210902
X275036Y203402
X280036Y193402
X280036Y185902
X284422Y185974
X295203Y177535
X279839Y170941
X270489Y167496
X266552Y167496
X262615Y167496
X262615Y163559
X266552Y163559
X270489Y163559
X270489Y159622
X266552Y159622
X262615Y159622
X252280Y158130
X252280Y153693
X259662Y150280
X263599Y150280
X272703Y148785
X267599Y144280
X280203Y155535
X282784Y159138
X294690Y156630
X292690Y146630
X288323Y132644
X285823Y117644
X288323Y97644
X293323Y82644
X288323Y77644
X270489Y176846
X243323Y187644
X215823Y190144
X216190Y179130
X203690Y179130
X243323Y235144
X251886Y244366
X261886Y249366
X276886Y249366
X266886Y236866
X258323Y235144
X281886Y234366
X295036Y223402
X290036Y220902
X302536Y213402
X290036Y203402
X307536Y225902
X307536Y235902
X452349Y161463
X457320Y171256
X114091Y87496
X109012Y87496
X98190Y85130
X64323Y106644
X64323Y119144
T02
X125595Y124433
X127595Y120433
X138595Y128933
X136095Y132933
X181595Y150433
X200095Y150433
X217595Y118933
X247595Y118933
X250595Y124933
X260595Y126433
X250595Y134933
X255095Y112433
X252595Y106433
X262095Y112433
X272095Y112433
X276095Y82933
X249095Y78933
X218304Y96433
X207095Y96433
X235095Y187433
X256595Y186433
X256595Y190433
X256595Y193933
X256595Y197433
X256595Y201433
X250095Y221433
X250095Y233933
X275095Y243933
X282595Y254933
X307595Y254933
X178658Y240984
X176158Y237984
X172158Y236484
X172158Y240484
X176827Y222906
X171158Y217984
X144347Y222866
X140705Y215248
T03
X130095Y196433
X144595Y108933
T04
X295351Y138411
X302241Y128569
X310115Y128569
X315489Y132506
X315489Y124632
X315489Y116758
X315489Y108884
X315489Y101010
X315489Y93136
X315489Y85262
X315489Y77388
X315489Y67014
X315489Y54140
X315489Y140380
X315489Y148254
X315489Y156128
X315489Y175813
X315489Y183687
X315489Y191561
X315489Y199435
X310115Y203372
X315489Y207309
X315489Y215183
X315489Y223057
X315489Y230931
X315489Y238805
X315489Y246679
X315489Y254553
X314989Y265927
X315489Y280301
X300095Y221433
X302241Y203372
X295351Y193530
T05
X70095Y61433
X80095Y61433
X90095Y61433
X100095Y61433
X110095Y61433
X120095Y61433
X130095Y61433
X130095Y71433
X120095Y71433
X110095Y71433
X100095Y71433
X90095Y71433
X80095Y71433
X70095Y71433
X140095Y71433
X150095Y71433
X160095Y71433
X170095Y71433
X180095Y71433
X190095Y71433
X200095Y71433
X200095Y61433
X190095Y61433
X180095Y61433
X170095Y61433
X160095Y61433
X150095Y61433
X140095Y61433
X210095Y61433
X220095Y61433
X230095Y61433
X240095Y61433
X250095Y61433
X260095Y61433
X270095Y61433
X270095Y71433
X260095Y71433
X250095Y71433
X240095Y71433
X230095Y71433
X220095Y71433
X210095Y71433
X280095Y71433
X290095Y71433
X300095Y71433
X310095Y71433
X310095Y61433
X300095Y61433
X290095Y61433
X280095Y61433
X280095Y261433
X290095Y261433
X300095Y261433
X310095Y261433
X310095Y271433
X300095Y271433
X290095Y271433
X280095Y271433
X270095Y271433
X260095Y271433
X250095Y271433
X240095Y271433
X230095Y271433
X220095Y271433
X210095Y271433
X200095Y271433
X190095Y271433
X180095Y271433
X170095Y271433
X160095Y271433
X150095Y271433
X140095Y271433
X130095Y271433
X120095Y271433
X110095Y271433
X100095Y271433
X90095Y271433
X80095Y271433
X70095Y271433
X70095Y261433
X80095Y261433
X90095Y261433
X100095Y261433
X110095Y261433
X120095Y261433
X130095Y261433
X140095Y261433
X150095Y261433
X160095Y261433
X170095Y261433
X180095Y261433
X190095Y261433
X200095Y261433
X210095Y261433
X220095Y261433
X230095Y261433
X240095Y261433
X250095Y261433
X260095Y261433
X270095Y261433
T06
X103595Y215433
X103595Y205433
X103595Y195433
X103595Y173933
X103595Y163933
X103595Y153933
X103595Y143933
X103595Y122933
X103595Y112933
X103595Y102933
T07
X155595Y154933
X155595Y234933
M30
