G75*
%MOIN*%
%OFA0B0*%
%FSLAX25Y25*%
%IPPOS*%
%LPD*%
%AMOC8*
5,1,8,0,0,1.08239X$1,22.5*
%
%ADD10C,0.00200*%
%ADD11R,0.01772X0.01772*%
%ADD12C,0.00600*%
%ADD13C,0.00400*%
%ADD14C,0.03000*%
%ADD15R,0.02000X0.03000*%
%ADD16R,0.04000X0.03000*%
%ADD17C,0.01000*%
%ADD18R,0.01575X0.10433*%
%ADD19R,0.10433X0.01575*%
D10*
X0122793Y0088533D02*
X0122793Y0089634D01*
X0123160Y0090001D01*
X0123894Y0090001D01*
X0124261Y0089634D01*
X0124261Y0088533D01*
X0124261Y0089267D02*
X0124995Y0090001D01*
X0124995Y0090743D02*
X0123527Y0092211D01*
X0123160Y0092211D01*
X0122793Y0091844D01*
X0122793Y0091110D01*
X0123160Y0090743D01*
X0124995Y0090743D02*
X0124995Y0092211D01*
X0124995Y0092953D02*
X0124628Y0092953D01*
X0123160Y0094421D01*
X0122793Y0094421D01*
X0122793Y0092953D01*
X0130293Y0093320D02*
X0130293Y0094054D01*
X0130660Y0094421D01*
X0132128Y0092953D01*
X0132495Y0093320D01*
X0132495Y0094054D01*
X0132128Y0094421D01*
X0130660Y0094421D01*
X0130293Y0093320D02*
X0130660Y0092953D01*
X0132128Y0092953D01*
X0132128Y0092211D02*
X0132495Y0091844D01*
X0132495Y0091110D01*
X0132128Y0090743D01*
X0132495Y0090001D02*
X0131761Y0089267D01*
X0131761Y0089634D02*
X0131761Y0088533D01*
X0132495Y0088533D02*
X0130293Y0088533D01*
X0130293Y0089634D01*
X0130660Y0090001D01*
X0131394Y0090001D01*
X0131761Y0089634D01*
X0130660Y0090743D02*
X0130293Y0091110D01*
X0130293Y0091844D01*
X0130660Y0092211D01*
X0131027Y0092211D01*
X0131394Y0091844D01*
X0131761Y0092211D01*
X0132128Y0092211D01*
X0131394Y0091844D02*
X0131394Y0091477D01*
X0139293Y0091110D02*
X0139660Y0090743D01*
X0139293Y0091110D02*
X0139293Y0091844D01*
X0139660Y0092211D01*
X0140027Y0092211D01*
X0141495Y0090743D01*
X0141495Y0092211D01*
X0141128Y0092953D02*
X0141495Y0093320D01*
X0141495Y0094054D01*
X0141128Y0094421D01*
X0139660Y0094421D01*
X0139293Y0094054D01*
X0139293Y0093320D01*
X0139660Y0092953D01*
X0140027Y0092953D01*
X0140394Y0093320D01*
X0140394Y0094421D01*
X0140394Y0090001D02*
X0139660Y0090001D01*
X0139293Y0089634D01*
X0139293Y0088533D01*
X0141495Y0088533D01*
X0140761Y0088533D02*
X0140761Y0089634D01*
X0140394Y0090001D01*
X0140761Y0089267D02*
X0141495Y0090001D01*
X0124995Y0088533D02*
X0122793Y0088533D01*
X0122793Y0110033D02*
X0122793Y0111134D01*
X0123160Y0111501D01*
X0123894Y0111501D01*
X0124261Y0111134D01*
X0124261Y0110033D01*
X0124261Y0110767D02*
X0124995Y0111501D01*
X0124995Y0112243D02*
X0123527Y0113711D01*
X0123160Y0113711D01*
X0122793Y0113344D01*
X0122793Y0112610D01*
X0123160Y0112243D01*
X0124995Y0112243D02*
X0124995Y0113711D01*
X0124628Y0114453D02*
X0124995Y0114820D01*
X0124995Y0115554D01*
X0124628Y0115921D01*
X0124261Y0115921D01*
X0123894Y0115554D01*
X0123894Y0114453D01*
X0124628Y0114453D01*
X0123894Y0114453D02*
X0123160Y0115187D01*
X0122793Y0115921D01*
X0122793Y0110033D02*
X0124995Y0110033D01*
X0116495Y0110533D02*
X0114293Y0110533D01*
X0114293Y0111634D01*
X0114660Y0112001D01*
X0115394Y0112001D01*
X0115761Y0111634D01*
X0115761Y0110533D01*
X0115761Y0111267D02*
X0116495Y0112001D01*
X0116495Y0112743D02*
X0115027Y0114211D01*
X0114660Y0114211D01*
X0114293Y0113844D01*
X0114293Y0113110D01*
X0114660Y0112743D01*
X0116495Y0112743D02*
X0116495Y0114211D01*
X0116128Y0114953D02*
X0116495Y0115320D01*
X0116495Y0116054D01*
X0116128Y0116421D01*
X0115394Y0116421D01*
X0115027Y0116054D01*
X0115027Y0115687D01*
X0115394Y0114953D01*
X0114293Y0114953D01*
X0114293Y0116421D01*
X0114115Y0118033D02*
X0115583Y0119501D01*
X0115583Y0119868D01*
X0115216Y0120235D01*
X0114482Y0120235D01*
X0114115Y0119868D01*
X0113373Y0119868D02*
X0113006Y0120235D01*
X0112272Y0120235D01*
X0111905Y0119868D01*
X0111163Y0119868D02*
X0111163Y0119134D01*
X0110796Y0118767D01*
X0109695Y0118767D01*
X0109695Y0118033D02*
X0109695Y0120235D01*
X0110796Y0120235D01*
X0111163Y0119868D01*
X0110429Y0118767D02*
X0111163Y0118033D01*
X0111905Y0118033D02*
X0113373Y0119501D01*
X0113373Y0119868D01*
X0113373Y0118033D02*
X0111905Y0118033D01*
X0114115Y0118033D02*
X0115583Y0118033D01*
X0129593Y0121333D02*
X0129593Y0122067D01*
X0129593Y0121700D02*
X0131795Y0121700D01*
X0131795Y0121333D02*
X0131795Y0122067D01*
X0131428Y0122806D02*
X0131795Y0123173D01*
X0131795Y0123907D01*
X0131428Y0124274D01*
X0131428Y0125016D02*
X0131795Y0125383D01*
X0131795Y0126117D01*
X0131428Y0126484D01*
X0131061Y0126484D01*
X0130694Y0126117D01*
X0130694Y0125750D01*
X0130694Y0126117D02*
X0130327Y0126484D01*
X0129960Y0126484D01*
X0129593Y0126117D01*
X0129593Y0125383D01*
X0129960Y0125016D01*
X0129960Y0124274D02*
X0129593Y0123907D01*
X0129593Y0123173D01*
X0129960Y0122806D01*
X0131428Y0122806D01*
X0128128Y0129533D02*
X0128495Y0129900D01*
X0128495Y0130634D01*
X0128128Y0131001D01*
X0128495Y0131743D02*
X0128495Y0133211D01*
X0128495Y0132477D02*
X0126293Y0132477D01*
X0127027Y0131743D01*
X0126660Y0131001D02*
X0126293Y0130634D01*
X0126293Y0129900D01*
X0126660Y0129533D01*
X0128128Y0129533D01*
X0128128Y0133953D02*
X0128495Y0134320D01*
X0128495Y0135054D01*
X0128128Y0135421D01*
X0127394Y0135421D01*
X0127027Y0135054D01*
X0127027Y0134687D01*
X0127394Y0133953D01*
X0126293Y0133953D01*
X0126293Y0135421D01*
X0120495Y0135054D02*
X0120495Y0134320D01*
X0120128Y0133953D01*
X0120495Y0133211D02*
X0120495Y0131743D01*
X0119027Y0133211D01*
X0118660Y0133211D01*
X0118293Y0132844D01*
X0118293Y0132110D01*
X0118660Y0131743D01*
X0118660Y0131001D02*
X0119394Y0131001D01*
X0119761Y0130634D01*
X0119761Y0129533D01*
X0119761Y0130267D02*
X0120495Y0131001D01*
X0120495Y0129533D02*
X0118293Y0129533D01*
X0118293Y0130634D01*
X0118660Y0131001D01*
X0118660Y0133953D02*
X0118293Y0134320D01*
X0118293Y0135054D01*
X0118660Y0135421D01*
X0119027Y0135421D01*
X0119394Y0135054D01*
X0119761Y0135421D01*
X0120128Y0135421D01*
X0120495Y0135054D01*
X0119394Y0135054D02*
X0119394Y0134687D01*
X0111495Y0135554D02*
X0109293Y0135554D01*
X0110394Y0134453D01*
X0110394Y0135921D01*
X0110027Y0133711D02*
X0109660Y0133711D01*
X0109293Y0133344D01*
X0109293Y0132610D01*
X0109660Y0132243D01*
X0109660Y0131501D02*
X0110394Y0131501D01*
X0110761Y0131134D01*
X0110761Y0130033D01*
X0110761Y0130767D02*
X0111495Y0131501D01*
X0111495Y0132243D02*
X0110027Y0133711D01*
X0111495Y0133711D02*
X0111495Y0132243D01*
X0109660Y0131501D02*
X0109293Y0131134D01*
X0109293Y0130033D01*
X0111495Y0130033D01*
X0138793Y0130533D02*
X0138793Y0131634D01*
X0139160Y0132001D01*
X0139894Y0132001D01*
X0140261Y0131634D01*
X0140261Y0130533D01*
X0140261Y0131267D02*
X0140995Y0132001D01*
X0140995Y0132743D02*
X0139527Y0134211D01*
X0139160Y0134211D01*
X0138793Y0133844D01*
X0138793Y0133110D01*
X0139160Y0132743D01*
X0140995Y0132743D02*
X0140995Y0134211D01*
X0140628Y0134953D02*
X0140261Y0134953D01*
X0139894Y0135320D01*
X0139894Y0136054D01*
X0140261Y0136421D01*
X0140628Y0136421D01*
X0140995Y0136054D01*
X0140995Y0135320D01*
X0140628Y0134953D01*
X0139894Y0135320D02*
X0139527Y0134953D01*
X0139160Y0134953D01*
X0138793Y0135320D01*
X0138793Y0136054D01*
X0139160Y0136421D01*
X0139527Y0136421D01*
X0139894Y0136054D01*
X0140995Y0130533D02*
X0138793Y0130533D01*
X0133716Y0158033D02*
X0132982Y0158033D01*
X0132615Y0158400D01*
X0132615Y0159134D02*
X0133349Y0159501D01*
X0133716Y0159501D01*
X0134083Y0159134D01*
X0134083Y0158400D01*
X0133716Y0158033D01*
X0132615Y0159134D02*
X0132615Y0160235D01*
X0134083Y0160235D01*
X0131873Y0159868D02*
X0131873Y0159501D01*
X0131506Y0159134D01*
X0131873Y0158767D01*
X0131873Y0158400D01*
X0131506Y0158033D01*
X0130772Y0158033D01*
X0130405Y0158400D01*
X0129663Y0158033D02*
X0128929Y0158767D01*
X0129296Y0158767D02*
X0128195Y0158767D01*
X0128195Y0158033D02*
X0128195Y0160235D01*
X0129296Y0160235D01*
X0129663Y0159868D01*
X0129663Y0159134D01*
X0129296Y0158767D01*
X0130405Y0159868D02*
X0130772Y0160235D01*
X0131506Y0160235D01*
X0131873Y0159868D01*
X0131506Y0159134D02*
X0131139Y0159134D01*
X0129395Y0171403D02*
X0127193Y0171403D01*
X0127193Y0172504D01*
X0127560Y0172871D01*
X0128294Y0172871D01*
X0128661Y0172504D01*
X0128661Y0171403D01*
X0128661Y0172137D02*
X0129395Y0172871D01*
X0129028Y0173613D02*
X0129395Y0173980D01*
X0129395Y0174714D01*
X0129028Y0175081D01*
X0128661Y0175081D01*
X0128294Y0174714D01*
X0128294Y0174347D01*
X0128294Y0174714D02*
X0127927Y0175081D01*
X0127560Y0175081D01*
X0127193Y0174714D01*
X0127193Y0173980D01*
X0127560Y0173613D01*
X0128294Y0175823D02*
X0128294Y0177291D01*
X0127193Y0176924D02*
X0128294Y0175823D01*
X0129395Y0176924D02*
X0127193Y0176924D01*
X0121895Y0176924D02*
X0121895Y0176190D01*
X0121528Y0175823D01*
X0121528Y0175081D02*
X0121895Y0174714D01*
X0121895Y0173980D01*
X0121528Y0173613D01*
X0121895Y0172871D02*
X0121161Y0172137D01*
X0121161Y0172504D02*
X0121161Y0171403D01*
X0121895Y0171403D02*
X0119693Y0171403D01*
X0119693Y0172504D01*
X0120060Y0172871D01*
X0120794Y0172871D01*
X0121161Y0172504D01*
X0120060Y0173613D02*
X0119693Y0173980D01*
X0119693Y0174714D01*
X0120060Y0175081D01*
X0120427Y0175081D01*
X0120794Y0174714D01*
X0121161Y0175081D01*
X0121528Y0175081D01*
X0120794Y0174714D02*
X0120794Y0174347D01*
X0120060Y0175823D02*
X0119693Y0176190D01*
X0119693Y0176924D01*
X0120060Y0177291D01*
X0120427Y0177291D01*
X0120794Y0176924D01*
X0121161Y0177291D01*
X0121528Y0177291D01*
X0121895Y0176924D01*
X0120794Y0176924D02*
X0120794Y0176557D01*
X0120295Y0195833D02*
X0120295Y0196567D01*
X0120295Y0196200D02*
X0118093Y0196200D01*
X0118093Y0195833D02*
X0118093Y0196567D01*
X0118460Y0197306D02*
X0119928Y0197306D01*
X0120295Y0197673D01*
X0120295Y0198407D01*
X0119928Y0198774D01*
X0120295Y0199516D02*
X0118827Y0200984D01*
X0118460Y0200984D01*
X0118093Y0200617D01*
X0118093Y0199883D01*
X0118460Y0199516D01*
X0118460Y0198774D02*
X0118093Y0198407D01*
X0118093Y0197673D01*
X0118460Y0197306D01*
X0120295Y0199516D02*
X0120295Y0200984D01*
X0118031Y0221558D02*
X0118031Y0223760D01*
X0116930Y0222659D01*
X0118398Y0222659D01*
X0116188Y0221558D02*
X0114720Y0221558D01*
X0115454Y0221558D02*
X0115454Y0223760D01*
X0114720Y0223026D01*
X0113978Y0223393D02*
X0113611Y0223760D01*
X0112877Y0223760D01*
X0112510Y0223393D01*
X0112510Y0221925D01*
X0112877Y0221558D01*
X0113611Y0221558D01*
X0113978Y0221925D01*
X0130195Y0229533D02*
X0130195Y0231735D01*
X0131296Y0231735D01*
X0131663Y0231368D01*
X0131663Y0230634D01*
X0131296Y0230267D01*
X0130195Y0230267D01*
X0130929Y0230267D02*
X0131663Y0229533D01*
X0132405Y0229900D02*
X0132772Y0229533D01*
X0133506Y0229533D01*
X0133873Y0229900D01*
X0133873Y0230267D01*
X0133506Y0230634D01*
X0133139Y0230634D01*
X0133506Y0230634D02*
X0133873Y0231001D01*
X0133873Y0231368D01*
X0133506Y0231735D01*
X0132772Y0231735D01*
X0132405Y0231368D01*
X0134615Y0231735D02*
X0136083Y0231735D01*
X0136083Y0231368D01*
X0134615Y0229900D01*
X0134615Y0229533D01*
X0125495Y0240033D02*
X0123293Y0240033D01*
X0123293Y0241134D01*
X0123660Y0241501D01*
X0124394Y0241501D01*
X0124761Y0241134D01*
X0124761Y0240033D01*
X0124761Y0240767D02*
X0125495Y0241501D01*
X0125495Y0242243D02*
X0124027Y0243711D01*
X0123660Y0243711D01*
X0123293Y0243344D01*
X0123293Y0242610D01*
X0123660Y0242243D01*
X0125495Y0242243D02*
X0125495Y0243711D01*
X0125128Y0244453D02*
X0123660Y0245921D01*
X0125128Y0245921D01*
X0125495Y0245554D01*
X0125495Y0244820D01*
X0125128Y0244453D01*
X0123660Y0244453D01*
X0123293Y0244820D01*
X0123293Y0245554D01*
X0123660Y0245921D01*
X0117495Y0245554D02*
X0117495Y0244820D01*
X0117128Y0244453D01*
X0116394Y0244820D02*
X0116394Y0245921D01*
X0115660Y0245921D02*
X0115293Y0245554D01*
X0115293Y0244820D01*
X0115660Y0244453D01*
X0116027Y0244453D01*
X0116394Y0244820D01*
X0117128Y0245921D02*
X0115660Y0245921D01*
X0117128Y0245921D02*
X0117495Y0245554D01*
X0117495Y0243711D02*
X0117495Y0242243D01*
X0117495Y0242977D02*
X0115293Y0242977D01*
X0116027Y0242243D01*
X0115660Y0241501D02*
X0116394Y0241501D01*
X0116761Y0241134D01*
X0116761Y0240033D01*
X0116761Y0240767D02*
X0117495Y0241501D01*
X0117495Y0240033D02*
X0115293Y0240033D01*
X0115293Y0241134D01*
X0115660Y0241501D01*
X0109495Y0241501D02*
X0108761Y0240767D01*
X0108761Y0241134D02*
X0108761Y0240033D01*
X0109495Y0240033D02*
X0107293Y0240033D01*
X0107293Y0241134D01*
X0107660Y0241501D01*
X0108394Y0241501D01*
X0108761Y0241134D01*
X0109495Y0242243D02*
X0108027Y0243711D01*
X0107660Y0243711D01*
X0107293Y0243344D01*
X0107293Y0242610D01*
X0107660Y0242243D01*
X0109495Y0242243D02*
X0109495Y0243711D01*
X0109495Y0244453D02*
X0109495Y0245921D01*
X0109495Y0245187D02*
X0107293Y0245187D01*
X0108027Y0244453D01*
X0159065Y0223516D02*
X0159065Y0221314D01*
X0159065Y0222048D02*
X0160166Y0222048D01*
X0160533Y0222415D01*
X0160533Y0223149D01*
X0160166Y0223516D01*
X0159065Y0223516D01*
X0159799Y0222048D02*
X0160533Y0221314D01*
X0161275Y0221681D02*
X0161642Y0221314D01*
X0162376Y0221314D01*
X0162743Y0221681D01*
X0162743Y0222048D01*
X0162376Y0222415D01*
X0162009Y0222415D01*
X0162376Y0222415D02*
X0162743Y0222782D01*
X0162743Y0223149D01*
X0162376Y0223516D01*
X0161642Y0223516D01*
X0161275Y0223149D01*
X0163485Y0223149D02*
X0163485Y0222782D01*
X0163852Y0222415D01*
X0164586Y0222415D01*
X0164953Y0222048D01*
X0164953Y0221681D01*
X0164586Y0221314D01*
X0163852Y0221314D01*
X0163485Y0221681D01*
X0163485Y0222048D01*
X0163852Y0222415D01*
X0164586Y0222415D02*
X0164953Y0222782D01*
X0164953Y0223149D01*
X0164586Y0223516D01*
X0163852Y0223516D01*
X0163485Y0223149D01*
X0247065Y0194968D02*
X0247065Y0193500D01*
X0247432Y0193133D01*
X0248166Y0193133D01*
X0248533Y0193500D01*
X0249275Y0193133D02*
X0250743Y0193133D01*
X0250009Y0193133D02*
X0250009Y0195335D01*
X0249275Y0194601D01*
X0248533Y0194968D02*
X0248166Y0195335D01*
X0247432Y0195335D01*
X0247065Y0194968D01*
X0251485Y0194968D02*
X0251852Y0195335D01*
X0252586Y0195335D01*
X0252953Y0194968D01*
X0251485Y0193500D01*
X0251852Y0193133D01*
X0252586Y0193133D01*
X0252953Y0193500D01*
X0252953Y0194968D01*
X0251485Y0194968D02*
X0251485Y0193500D01*
X0251635Y0200074D02*
X0253103Y0200074D01*
X0252369Y0200074D02*
X0252369Y0202276D01*
X0251635Y0201542D01*
X0250893Y0200074D02*
X0249425Y0200074D01*
X0250159Y0200074D02*
X0250159Y0202276D01*
X0249425Y0201542D01*
X0248683Y0201909D02*
X0248316Y0202276D01*
X0247582Y0202276D01*
X0247215Y0201909D01*
X0247215Y0200441D01*
X0247582Y0200074D01*
X0248316Y0200074D01*
X0248683Y0200441D01*
X0263293Y0210033D02*
X0265495Y0210033D01*
X0265495Y0211501D01*
X0264394Y0212243D02*
X0264394Y0213711D01*
X0263293Y0213344D02*
X0264394Y0212243D01*
X0265495Y0213344D02*
X0263293Y0213344D01*
X0284293Y0228533D02*
X0284293Y0229634D01*
X0284660Y0230001D01*
X0285394Y0230001D01*
X0285761Y0229634D01*
X0285761Y0228533D01*
X0285761Y0229267D02*
X0286495Y0230001D01*
X0286495Y0230743D02*
X0286495Y0232211D01*
X0286495Y0231477D02*
X0284293Y0231477D01*
X0285027Y0230743D01*
X0284660Y0232953D02*
X0284293Y0233320D01*
X0284293Y0234054D01*
X0284660Y0234421D01*
X0286128Y0232953D01*
X0286495Y0233320D01*
X0286495Y0234054D01*
X0286128Y0234421D01*
X0284660Y0234421D01*
X0284660Y0232953D02*
X0286128Y0232953D01*
X0286495Y0228533D02*
X0284293Y0228533D01*
X0294293Y0228533D02*
X0294293Y0229634D01*
X0294660Y0230001D01*
X0295394Y0230001D01*
X0295761Y0229634D01*
X0295761Y0228533D01*
X0295761Y0229267D02*
X0296495Y0230001D01*
X0296495Y0230743D02*
X0296495Y0232211D01*
X0296495Y0231477D02*
X0294293Y0231477D01*
X0295027Y0230743D01*
X0295027Y0232953D02*
X0294293Y0233687D01*
X0296495Y0233687D01*
X0296495Y0232953D02*
X0296495Y0234421D01*
X0296495Y0228533D02*
X0294293Y0228533D01*
X0279495Y0241033D02*
X0277293Y0241033D01*
X0277293Y0242134D01*
X0277660Y0242501D01*
X0278394Y0242501D01*
X0278761Y0242134D01*
X0278761Y0241033D01*
X0278761Y0241767D02*
X0279495Y0242501D01*
X0279495Y0243243D02*
X0279495Y0244711D01*
X0279495Y0243977D02*
X0277293Y0243977D01*
X0278027Y0243243D01*
X0277660Y0245453D02*
X0277293Y0245820D01*
X0277293Y0246554D01*
X0277660Y0246921D01*
X0278027Y0246921D01*
X0278394Y0246554D01*
X0278761Y0246921D01*
X0279128Y0246921D01*
X0279495Y0246554D01*
X0279495Y0245820D01*
X0279128Y0245453D01*
X0278394Y0246187D02*
X0278394Y0246554D01*
X0285293Y0246634D02*
X0285660Y0247001D01*
X0286394Y0247001D01*
X0286761Y0246634D01*
X0286761Y0245533D01*
X0286761Y0246267D02*
X0287495Y0247001D01*
X0287128Y0247743D02*
X0287495Y0248110D01*
X0287495Y0248844D01*
X0287128Y0249211D01*
X0285660Y0249211D01*
X0285293Y0248844D01*
X0285293Y0248110D01*
X0285660Y0247743D01*
X0286027Y0247743D01*
X0286394Y0248110D01*
X0286394Y0249211D01*
X0285293Y0246634D02*
X0285293Y0245533D01*
X0287495Y0245533D01*
X0294293Y0245634D02*
X0294293Y0244533D01*
X0296495Y0244533D01*
X0295761Y0244533D02*
X0295761Y0245634D01*
X0295394Y0246001D01*
X0294660Y0246001D01*
X0294293Y0245634D01*
X0294660Y0246743D02*
X0295027Y0246743D01*
X0295394Y0247110D01*
X0295394Y0247844D01*
X0295761Y0248211D01*
X0296128Y0248211D01*
X0296495Y0247844D01*
X0296495Y0247110D01*
X0296128Y0246743D01*
X0295761Y0246743D01*
X0295394Y0247110D01*
X0295394Y0247844D02*
X0295027Y0248211D01*
X0294660Y0248211D01*
X0294293Y0247844D01*
X0294293Y0247110D01*
X0294660Y0246743D01*
X0295761Y0245267D02*
X0296495Y0246001D01*
X0303293Y0245533D02*
X0303293Y0246634D01*
X0303660Y0247001D01*
X0304394Y0247001D01*
X0304761Y0246634D01*
X0304761Y0245533D01*
X0304761Y0246267D02*
X0305495Y0247001D01*
X0305495Y0247743D02*
X0305495Y0249211D01*
X0305495Y0248477D02*
X0303293Y0248477D01*
X0304027Y0247743D01*
X0303660Y0249953D02*
X0303293Y0250320D01*
X0303293Y0251054D01*
X0303660Y0251421D01*
X0304027Y0251421D01*
X0305495Y0249953D01*
X0305495Y0251421D01*
X0305495Y0245533D02*
X0303293Y0245533D01*
X0304294Y0199245D02*
X0303927Y0198878D01*
X0303927Y0197410D01*
X0304294Y0197043D01*
X0305028Y0197043D01*
X0305395Y0197410D01*
X0306137Y0197043D02*
X0307605Y0198511D01*
X0307605Y0198878D01*
X0307238Y0199245D01*
X0306504Y0199245D01*
X0306137Y0198878D01*
X0305395Y0198878D02*
X0305028Y0199245D01*
X0304294Y0199245D01*
X0306137Y0197043D02*
X0307605Y0197043D01*
X0296995Y0186211D02*
X0296995Y0184743D01*
X0295527Y0186211D01*
X0295160Y0186211D01*
X0294793Y0185844D01*
X0294793Y0185110D01*
X0295160Y0184743D01*
X0296995Y0184001D02*
X0296995Y0182533D01*
X0294793Y0182533D01*
X0303793Y0182211D02*
X0303793Y0180743D01*
X0304894Y0180743D01*
X0304527Y0181477D01*
X0304527Y0181844D01*
X0304894Y0182211D01*
X0305628Y0182211D01*
X0305995Y0181844D01*
X0305995Y0181110D01*
X0305628Y0180743D01*
X0305628Y0180001D02*
X0305995Y0179634D01*
X0305995Y0178900D01*
X0305628Y0178533D01*
X0304160Y0178533D01*
X0303793Y0178900D01*
X0303793Y0179634D01*
X0304160Y0180001D01*
X0293293Y0175368D02*
X0292926Y0175735D01*
X0292192Y0175735D01*
X0291825Y0175368D01*
X0291083Y0175735D02*
X0289615Y0173533D01*
X0288873Y0173533D02*
X0288139Y0174267D01*
X0288506Y0174267D02*
X0287405Y0174267D01*
X0287405Y0173533D02*
X0287405Y0175735D01*
X0288506Y0175735D01*
X0288873Y0175368D01*
X0288873Y0174634D01*
X0288506Y0174267D01*
X0289615Y0175735D02*
X0291083Y0173533D01*
X0291825Y0173533D02*
X0293293Y0175001D01*
X0293293Y0175368D01*
X0293293Y0173533D02*
X0291825Y0173533D01*
X0286663Y0173533D02*
X0285929Y0174267D01*
X0286296Y0174267D02*
X0285195Y0174267D01*
X0285195Y0173533D02*
X0285195Y0175735D01*
X0286296Y0175735D01*
X0286663Y0175368D01*
X0286663Y0174634D01*
X0286296Y0174267D01*
X0295793Y0168211D02*
X0296160Y0167477D01*
X0296894Y0166743D01*
X0296894Y0167844D01*
X0297261Y0168211D01*
X0297628Y0168211D01*
X0297995Y0167844D01*
X0297995Y0167110D01*
X0297628Y0166743D01*
X0296894Y0166743D01*
X0296160Y0166001D02*
X0295793Y0165634D01*
X0295793Y0164900D01*
X0296160Y0164533D01*
X0297628Y0164533D01*
X0297995Y0164900D01*
X0297995Y0165634D01*
X0297628Y0166001D01*
X0303793Y0165634D02*
X0303793Y0164900D01*
X0304160Y0164533D01*
X0305628Y0164533D01*
X0305995Y0164900D01*
X0305995Y0165634D01*
X0305628Y0166001D01*
X0305628Y0166743D02*
X0305995Y0166743D01*
X0305628Y0166743D02*
X0304160Y0168211D01*
X0303793Y0168211D01*
X0303793Y0166743D01*
X0304160Y0166001D02*
X0303793Y0165634D01*
X0311293Y0166477D02*
X0313495Y0166477D01*
X0313495Y0165743D02*
X0313495Y0167211D01*
X0312394Y0167953D02*
X0311293Y0169054D01*
X0313495Y0169054D01*
X0312394Y0169421D02*
X0312394Y0167953D01*
X0311293Y0166477D02*
X0312027Y0165743D01*
X0311660Y0165001D02*
X0312394Y0165001D01*
X0312761Y0164634D01*
X0312761Y0163533D01*
X0312761Y0164267D02*
X0313495Y0165001D01*
X0313495Y0163533D02*
X0311293Y0163533D01*
X0311293Y0164634D01*
X0311660Y0165001D01*
X0305995Y0153844D02*
X0303793Y0153844D01*
X0304894Y0152743D01*
X0304894Y0154211D01*
X0304160Y0152001D02*
X0303793Y0151634D01*
X0303793Y0150900D01*
X0304160Y0150533D01*
X0305628Y0150533D01*
X0305995Y0150900D01*
X0305995Y0151634D01*
X0305628Y0152001D01*
X0296995Y0152501D02*
X0296995Y0151033D01*
X0294793Y0151033D01*
X0295527Y0153243D02*
X0294793Y0153977D01*
X0296995Y0153977D01*
X0296995Y0153243D02*
X0296995Y0154711D01*
X0292793Y0157033D02*
X0291325Y0157033D01*
X0292059Y0157033D02*
X0292059Y0159235D01*
X0291325Y0158501D01*
X0290583Y0159235D02*
X0289115Y0157033D01*
X0288373Y0157033D02*
X0287639Y0157767D01*
X0288006Y0157767D02*
X0286905Y0157767D01*
X0286905Y0157033D02*
X0286905Y0159235D01*
X0288006Y0159235D01*
X0288373Y0158868D01*
X0288373Y0158134D01*
X0288006Y0157767D01*
X0289115Y0159235D02*
X0290583Y0157033D01*
X0286163Y0157033D02*
X0285429Y0157767D01*
X0285796Y0157767D02*
X0284695Y0157767D01*
X0284695Y0157033D02*
X0284695Y0159235D01*
X0285796Y0159235D01*
X0286163Y0158868D01*
X0286163Y0158134D01*
X0285796Y0157767D01*
X0285128Y0147211D02*
X0285495Y0146844D01*
X0285495Y0146110D01*
X0285128Y0145743D01*
X0284761Y0145743D01*
X0284394Y0146110D01*
X0284394Y0146844D01*
X0284761Y0147211D01*
X0285128Y0147211D01*
X0284394Y0146844D02*
X0284027Y0147211D01*
X0283660Y0147211D01*
X0283293Y0146844D01*
X0283293Y0146110D01*
X0283660Y0145743D01*
X0284027Y0145743D01*
X0284394Y0146110D01*
X0283660Y0145001D02*
X0283293Y0144634D01*
X0283293Y0143900D01*
X0283660Y0143533D01*
X0285128Y0143533D01*
X0285495Y0143900D01*
X0285495Y0144634D01*
X0285128Y0145001D01*
X0276495Y0144711D02*
X0276495Y0143243D01*
X0276495Y0143977D02*
X0274293Y0143977D01*
X0275027Y0143243D01*
X0274660Y0142501D02*
X0275394Y0142501D01*
X0275761Y0142134D01*
X0275761Y0141033D01*
X0275761Y0141767D02*
X0276495Y0142501D01*
X0276495Y0141033D02*
X0274293Y0141033D01*
X0274293Y0142134D01*
X0274660Y0142501D01*
X0274293Y0145453D02*
X0275394Y0145453D01*
X0275027Y0146187D01*
X0275027Y0146554D01*
X0275394Y0146921D01*
X0276128Y0146921D01*
X0276495Y0146554D01*
X0276495Y0145820D01*
X0276128Y0145453D01*
X0274293Y0145453D02*
X0274293Y0146921D01*
X0274660Y0134211D02*
X0275027Y0134211D01*
X0275394Y0133844D01*
X0275761Y0134211D01*
X0276128Y0134211D01*
X0276495Y0133844D01*
X0276495Y0133110D01*
X0276128Y0132743D01*
X0276495Y0132001D02*
X0276495Y0130533D01*
X0274293Y0130533D01*
X0274660Y0132743D02*
X0274293Y0133110D01*
X0274293Y0133844D01*
X0274660Y0134211D01*
X0275394Y0133844D02*
X0275394Y0133477D01*
X0269216Y0123235D02*
X0268482Y0123235D01*
X0268115Y0122868D01*
X0269216Y0123235D02*
X0269583Y0122868D01*
X0269583Y0122501D01*
X0268115Y0121033D01*
X0269583Y0121033D01*
X0267373Y0121033D02*
X0265905Y0121033D01*
X0266639Y0121033D02*
X0266639Y0123235D01*
X0265905Y0122501D01*
X0265163Y0122868D02*
X0264796Y0123235D01*
X0264062Y0123235D01*
X0263695Y0122868D01*
X0263695Y0121400D01*
X0264062Y0121033D01*
X0264796Y0121033D01*
X0265163Y0121400D01*
X0251900Y0138604D02*
X0250432Y0138604D01*
X0250065Y0138971D01*
X0250065Y0139705D01*
X0250432Y0140072D01*
X0250799Y0140814D02*
X0250065Y0141548D01*
X0252267Y0141548D01*
X0252267Y0140814D02*
X0252267Y0142282D01*
X0251900Y0143024D02*
X0252267Y0143391D01*
X0252267Y0144125D01*
X0251900Y0144492D01*
X0251533Y0144492D01*
X0251166Y0144125D01*
X0251166Y0143758D01*
X0251166Y0144125D02*
X0250799Y0144492D01*
X0250432Y0144492D01*
X0250065Y0144125D01*
X0250065Y0143391D01*
X0250432Y0143024D01*
X0251900Y0140072D02*
X0252267Y0139705D01*
X0252267Y0138971D01*
X0251900Y0138604D01*
X0240995Y0150033D02*
X0238793Y0150033D01*
X0238793Y0151134D01*
X0239160Y0151501D01*
X0239894Y0151501D01*
X0240261Y0151134D01*
X0240261Y0150033D01*
X0240261Y0150767D02*
X0240995Y0151501D01*
X0240995Y0152243D02*
X0240628Y0152243D01*
X0239160Y0153711D01*
X0238793Y0153711D01*
X0238793Y0152243D01*
X0274374Y0183392D02*
X0274741Y0183025D01*
X0275475Y0183025D01*
X0275842Y0183392D01*
X0276584Y0183025D02*
X0278052Y0183025D01*
X0277318Y0183025D02*
X0277318Y0185227D01*
X0276584Y0184493D01*
X0275842Y0184860D02*
X0275475Y0185227D01*
X0274741Y0185227D01*
X0274374Y0184860D01*
X0274374Y0183392D01*
X0252953Y0185500D02*
X0252953Y0186968D01*
X0252586Y0187335D01*
X0251852Y0187335D01*
X0251485Y0186968D01*
X0251485Y0186601D01*
X0251852Y0186234D01*
X0252953Y0186234D01*
X0252953Y0185500D02*
X0252586Y0185133D01*
X0251852Y0185133D01*
X0251485Y0185500D01*
X0250743Y0185500D02*
X0250376Y0185133D01*
X0249642Y0185133D01*
X0249275Y0185500D01*
X0249275Y0186968D01*
X0249642Y0187335D01*
X0250376Y0187335D01*
X0250743Y0186968D01*
X0303786Y0143445D02*
X0303786Y0141977D01*
X0304153Y0141610D01*
X0304887Y0141610D01*
X0305254Y0141977D01*
X0305996Y0141977D02*
X0306363Y0141610D01*
X0307097Y0141610D01*
X0307463Y0141977D01*
X0307463Y0142344D01*
X0307097Y0142711D01*
X0306730Y0142711D01*
X0307097Y0142711D02*
X0307463Y0143078D01*
X0307463Y0143445D01*
X0307097Y0143812D01*
X0306363Y0143812D01*
X0305996Y0143445D01*
X0305254Y0143445D02*
X0304887Y0143812D01*
X0304153Y0143812D01*
X0303786Y0143445D01*
X0276495Y0105344D02*
X0274293Y0105344D01*
X0275394Y0104243D01*
X0275394Y0105711D01*
X0275394Y0103501D02*
X0274660Y0103501D01*
X0274293Y0103134D01*
X0274293Y0102033D01*
X0276495Y0102033D01*
X0275761Y0102033D02*
X0275761Y0103134D01*
X0275394Y0103501D01*
X0275761Y0102767D02*
X0276495Y0103501D01*
X0267495Y0103501D02*
X0266761Y0102767D01*
X0266761Y0103134D02*
X0266761Y0102033D01*
X0267495Y0102033D02*
X0265293Y0102033D01*
X0265293Y0103134D01*
X0265660Y0103501D01*
X0266394Y0103501D01*
X0266761Y0103134D01*
X0267128Y0104243D02*
X0267495Y0104610D01*
X0267495Y0105344D01*
X0267128Y0105711D01*
X0266761Y0105711D01*
X0266394Y0105344D01*
X0266394Y0104977D01*
X0266394Y0105344D02*
X0266027Y0105711D01*
X0265660Y0105711D01*
X0265293Y0105344D01*
X0265293Y0104610D01*
X0265660Y0104243D01*
X0258495Y0104610D02*
X0258495Y0105344D01*
X0258128Y0105711D01*
X0257761Y0105711D01*
X0257394Y0105344D01*
X0257394Y0104243D01*
X0258128Y0104243D01*
X0258495Y0104610D01*
X0258495Y0103501D02*
X0257761Y0102767D01*
X0257761Y0103134D02*
X0257761Y0102033D01*
X0258495Y0102033D02*
X0256293Y0102033D01*
X0256293Y0103134D01*
X0256660Y0103501D01*
X0257394Y0103501D01*
X0257761Y0103134D01*
X0257394Y0104243D02*
X0256660Y0104977D01*
X0256293Y0105711D01*
X0256261Y0098921D02*
X0256628Y0098921D01*
X0256995Y0098554D01*
X0256995Y0097820D01*
X0256628Y0097453D01*
X0256261Y0097453D01*
X0255894Y0097820D01*
X0255894Y0098554D01*
X0256261Y0098921D01*
X0255894Y0098554D02*
X0255527Y0098921D01*
X0255160Y0098921D01*
X0254793Y0098554D01*
X0254793Y0097820D01*
X0255160Y0097453D01*
X0255527Y0097453D01*
X0255894Y0097820D01*
X0256995Y0096711D02*
X0256995Y0095243D01*
X0256995Y0095977D02*
X0254793Y0095977D01*
X0255527Y0095243D01*
X0255160Y0094501D02*
X0255894Y0094501D01*
X0256261Y0094134D01*
X0256261Y0093033D01*
X0256261Y0093767D02*
X0256995Y0094501D01*
X0256995Y0093033D02*
X0254793Y0093033D01*
X0254793Y0094134D01*
X0255160Y0094501D01*
X0248995Y0094501D02*
X0248261Y0093767D01*
X0248261Y0094134D02*
X0248261Y0093033D01*
X0248995Y0093033D02*
X0246793Y0093033D01*
X0246793Y0094134D01*
X0247160Y0094501D01*
X0247894Y0094501D01*
X0248261Y0094134D01*
X0247527Y0095243D02*
X0246793Y0095977D01*
X0248995Y0095977D01*
X0248995Y0095243D02*
X0248995Y0096711D01*
X0248628Y0097453D02*
X0248995Y0097820D01*
X0248995Y0098554D01*
X0248628Y0098921D01*
X0248261Y0098921D01*
X0247894Y0098554D01*
X0247894Y0097453D01*
X0248628Y0097453D01*
X0247894Y0097453D02*
X0247160Y0098187D01*
X0246793Y0098921D01*
X0240995Y0097953D02*
X0240628Y0097953D01*
X0239160Y0099421D01*
X0238793Y0099421D01*
X0238793Y0097953D01*
X0238793Y0096477D02*
X0240995Y0096477D01*
X0240995Y0095743D02*
X0240995Y0097211D01*
X0239527Y0095743D02*
X0238793Y0096477D01*
X0239160Y0095001D02*
X0239894Y0095001D01*
X0240261Y0094634D01*
X0240261Y0093533D01*
X0240261Y0094267D02*
X0240995Y0095001D01*
X0240995Y0093533D02*
X0238793Y0093533D01*
X0238793Y0094634D01*
X0239160Y0095001D01*
X0215995Y0104033D02*
X0213793Y0104033D01*
X0213793Y0105134D01*
X0214160Y0105501D01*
X0214894Y0105501D01*
X0215261Y0105134D01*
X0215261Y0104033D01*
X0215261Y0104767D02*
X0215995Y0105501D01*
X0215628Y0106243D02*
X0215995Y0106610D01*
X0215995Y0107344D01*
X0215628Y0107711D01*
X0215261Y0107711D01*
X0214894Y0107344D01*
X0214894Y0106977D01*
X0214894Y0107344D02*
X0214527Y0107711D01*
X0214160Y0107711D01*
X0213793Y0107344D01*
X0213793Y0106610D01*
X0214160Y0106243D01*
X0214160Y0108453D02*
X0213793Y0108820D01*
X0213793Y0109554D01*
X0214160Y0109921D01*
X0214527Y0109921D01*
X0215995Y0108453D01*
X0215995Y0109921D01*
X0206995Y0109687D02*
X0204793Y0109687D01*
X0205527Y0108953D01*
X0205527Y0108211D02*
X0205894Y0107844D01*
X0206261Y0108211D01*
X0206628Y0108211D01*
X0206995Y0107844D01*
X0206995Y0107110D01*
X0206628Y0106743D01*
X0206995Y0106001D02*
X0206261Y0105267D01*
X0206261Y0105634D02*
X0206261Y0104533D01*
X0206995Y0104533D02*
X0204793Y0104533D01*
X0204793Y0105634D01*
X0205160Y0106001D01*
X0205894Y0106001D01*
X0206261Y0105634D01*
X0205160Y0106743D02*
X0204793Y0107110D01*
X0204793Y0107844D01*
X0205160Y0108211D01*
X0205527Y0108211D01*
X0205894Y0107844D02*
X0205894Y0107477D01*
X0206995Y0108953D02*
X0206995Y0110421D01*
X0264293Y0089844D02*
X0264293Y0089110D01*
X0264660Y0088743D01*
X0264660Y0088001D02*
X0265394Y0088001D01*
X0265761Y0087634D01*
X0265761Y0086533D01*
X0265761Y0087267D02*
X0266495Y0088001D01*
X0266495Y0088743D02*
X0265027Y0090211D01*
X0264660Y0090211D01*
X0264293Y0089844D01*
X0264660Y0088001D02*
X0264293Y0087634D01*
X0264293Y0086533D01*
X0266495Y0086533D01*
X0266495Y0088743D02*
X0266495Y0090211D01*
X0274793Y0089477D02*
X0276995Y0089477D01*
X0276995Y0088743D02*
X0276995Y0090211D01*
X0275527Y0088743D02*
X0274793Y0089477D01*
X0275160Y0088001D02*
X0274793Y0087634D01*
X0274793Y0086533D01*
X0276995Y0086533D01*
X0276261Y0086533D02*
X0276261Y0087634D01*
X0275894Y0088001D01*
X0275160Y0088001D01*
X0276261Y0087267D02*
X0276995Y0088001D01*
X0283293Y0087634D02*
X0283293Y0086533D01*
X0285495Y0086533D01*
X0284761Y0086533D02*
X0284761Y0087634D01*
X0284394Y0088001D01*
X0283660Y0088001D01*
X0283293Y0087634D01*
X0283293Y0088743D02*
X0284394Y0088743D01*
X0284027Y0089477D01*
X0284027Y0089844D01*
X0284394Y0090211D01*
X0285128Y0090211D01*
X0285495Y0089844D01*
X0285495Y0089110D01*
X0285128Y0088743D01*
X0285495Y0088001D02*
X0284761Y0087267D01*
X0283293Y0088743D02*
X0283293Y0090211D01*
X0159583Y0166219D02*
X0159583Y0166586D01*
X0159216Y0166953D01*
X0158115Y0166953D01*
X0158115Y0166219D01*
X0158482Y0165852D01*
X0159216Y0165852D01*
X0159583Y0166219D01*
X0158849Y0167687D02*
X0158115Y0166953D01*
X0157373Y0167320D02*
X0157006Y0166953D01*
X0157373Y0166586D01*
X0157373Y0166219D01*
X0157006Y0165852D01*
X0156272Y0165852D01*
X0155905Y0166219D01*
X0155163Y0165852D02*
X0154429Y0166586D01*
X0154796Y0166586D02*
X0153695Y0166586D01*
X0153695Y0165852D02*
X0153695Y0168054D01*
X0154796Y0168054D01*
X0155163Y0167687D01*
X0155163Y0166953D01*
X0154796Y0166586D01*
X0155905Y0167687D02*
X0156272Y0168054D01*
X0157006Y0168054D01*
X0157373Y0167687D01*
X0157373Y0167320D01*
X0157006Y0166953D02*
X0156639Y0166953D01*
X0158849Y0167687D02*
X0159583Y0168054D01*
D11*
X0275312Y0154799D03*
D12*
X0312595Y0078433D02*
X0067595Y0078433D01*
X0067497Y0078431D01*
X0067399Y0078425D01*
X0067301Y0078416D01*
X0067204Y0078402D01*
X0067107Y0078385D01*
X0067011Y0078364D01*
X0066916Y0078339D01*
X0066822Y0078311D01*
X0066730Y0078278D01*
X0066638Y0078243D01*
X0066548Y0078203D01*
X0066460Y0078161D01*
X0066373Y0078114D01*
X0066289Y0078065D01*
X0066206Y0078012D01*
X0066126Y0077956D01*
X0066047Y0077896D01*
X0065971Y0077834D01*
X0065898Y0077769D01*
X0065827Y0077701D01*
X0065759Y0077630D01*
X0065694Y0077557D01*
X0065632Y0077481D01*
X0065572Y0077402D01*
X0065516Y0077322D01*
X0065463Y0077239D01*
X0065414Y0077155D01*
X0065367Y0077068D01*
X0065325Y0076980D01*
X0065285Y0076890D01*
X0065250Y0076798D01*
X0065217Y0076706D01*
X0065189Y0076612D01*
X0065164Y0076517D01*
X0065143Y0076421D01*
X0065126Y0076324D01*
X0065112Y0076227D01*
X0065103Y0076129D01*
X0065097Y0076031D01*
X0065095Y0075933D01*
X0065095Y0056933D01*
X0065097Y0056835D01*
X0065103Y0056737D01*
X0065112Y0056639D01*
X0065126Y0056542D01*
X0065143Y0056445D01*
X0065164Y0056349D01*
X0065189Y0056254D01*
X0065217Y0056160D01*
X0065250Y0056068D01*
X0065285Y0055976D01*
X0065325Y0055886D01*
X0065367Y0055798D01*
X0065414Y0055711D01*
X0065463Y0055627D01*
X0065516Y0055544D01*
X0065572Y0055464D01*
X0065632Y0055385D01*
X0065694Y0055309D01*
X0065759Y0055236D01*
X0065827Y0055165D01*
X0065898Y0055097D01*
X0065971Y0055032D01*
X0066047Y0054970D01*
X0066126Y0054910D01*
X0066206Y0054854D01*
X0066289Y0054801D01*
X0066373Y0054752D01*
X0066460Y0054705D01*
X0066548Y0054663D01*
X0066638Y0054623D01*
X0066730Y0054588D01*
X0066822Y0054555D01*
X0066916Y0054527D01*
X0067011Y0054502D01*
X0067107Y0054481D01*
X0067204Y0054464D01*
X0067301Y0054450D01*
X0067399Y0054441D01*
X0067497Y0054435D01*
X0067595Y0054433D01*
X0312595Y0054433D01*
X0312693Y0054435D01*
X0312791Y0054441D01*
X0312889Y0054450D01*
X0312986Y0054464D01*
X0313083Y0054481D01*
X0313179Y0054502D01*
X0313274Y0054527D01*
X0313368Y0054555D01*
X0313460Y0054588D01*
X0313552Y0054623D01*
X0313642Y0054663D01*
X0313730Y0054705D01*
X0313817Y0054752D01*
X0313901Y0054801D01*
X0313984Y0054854D01*
X0314064Y0054910D01*
X0314143Y0054970D01*
X0314219Y0055032D01*
X0314292Y0055097D01*
X0314363Y0055165D01*
X0314431Y0055236D01*
X0314496Y0055309D01*
X0314558Y0055385D01*
X0314618Y0055464D01*
X0314674Y0055544D01*
X0314727Y0055627D01*
X0314776Y0055711D01*
X0314823Y0055798D01*
X0314865Y0055886D01*
X0314905Y0055976D01*
X0314940Y0056068D01*
X0314973Y0056160D01*
X0315001Y0056254D01*
X0315026Y0056349D01*
X0315047Y0056445D01*
X0315064Y0056542D01*
X0315078Y0056639D01*
X0315087Y0056737D01*
X0315093Y0056835D01*
X0315095Y0056933D01*
X0315095Y0075933D01*
X0315093Y0076031D01*
X0315087Y0076129D01*
X0315078Y0076227D01*
X0315064Y0076324D01*
X0315047Y0076421D01*
X0315026Y0076517D01*
X0315001Y0076612D01*
X0314973Y0076706D01*
X0314940Y0076798D01*
X0314905Y0076890D01*
X0314865Y0076980D01*
X0314823Y0077068D01*
X0314776Y0077155D01*
X0314727Y0077239D01*
X0314674Y0077322D01*
X0314618Y0077402D01*
X0314558Y0077481D01*
X0314496Y0077557D01*
X0314431Y0077630D01*
X0314363Y0077701D01*
X0314292Y0077769D01*
X0314219Y0077834D01*
X0314143Y0077896D01*
X0314064Y0077956D01*
X0313984Y0078012D01*
X0313901Y0078065D01*
X0313817Y0078114D01*
X0313730Y0078161D01*
X0313642Y0078203D01*
X0313552Y0078243D01*
X0313460Y0078278D01*
X0313368Y0078311D01*
X0313274Y0078339D01*
X0313179Y0078364D01*
X0313083Y0078385D01*
X0312986Y0078402D01*
X0312889Y0078416D01*
X0312791Y0078425D01*
X0312693Y0078431D01*
X0312595Y0078433D01*
X0144695Y0111833D02*
X0144695Y0124033D01*
X0132495Y0124033D02*
X0132495Y0111833D01*
X0096095Y0107933D02*
X0096095Y0097933D01*
X0086095Y0097933D01*
X0086095Y0107933D01*
X0086095Y0117933D01*
X0086095Y0127933D01*
X0096095Y0127933D01*
X0096095Y0117933D01*
X0086095Y0117933D01*
X0096095Y0117933D02*
X0096095Y0107933D01*
X0086095Y0107933D01*
X0086095Y0138933D02*
X0096095Y0138933D01*
X0096095Y0148933D01*
X0096095Y0158933D01*
X0096095Y0168933D01*
X0096095Y0178933D01*
X0086095Y0178933D01*
X0086095Y0168933D01*
X0086095Y0158933D01*
X0086095Y0148933D01*
X0086095Y0138933D01*
X0086095Y0148933D02*
X0096095Y0148933D01*
X0096095Y0158933D02*
X0086095Y0158933D01*
X0086095Y0168933D02*
X0096095Y0168933D01*
X0096095Y0190433D02*
X0086095Y0190433D01*
X0086095Y0200433D01*
X0086095Y0210433D01*
X0086095Y0220433D01*
X0096095Y0220433D01*
X0096095Y0210433D01*
X0086095Y0210433D01*
X0096095Y0210433D02*
X0096095Y0200433D01*
X0086095Y0200433D01*
X0096095Y0200433D02*
X0096095Y0190433D01*
X0121495Y0200865D02*
X0121495Y0217002D01*
X0133695Y0217002D02*
X0133695Y0200865D01*
X0067595Y0254433D02*
X0312595Y0254433D01*
X0312693Y0254435D01*
X0312791Y0254441D01*
X0312889Y0254450D01*
X0312986Y0254464D01*
X0313083Y0254481D01*
X0313179Y0254502D01*
X0313274Y0254527D01*
X0313368Y0254555D01*
X0313460Y0254588D01*
X0313552Y0254623D01*
X0313642Y0254663D01*
X0313730Y0254705D01*
X0313817Y0254752D01*
X0313901Y0254801D01*
X0313984Y0254854D01*
X0314064Y0254910D01*
X0314143Y0254970D01*
X0314219Y0255032D01*
X0314292Y0255097D01*
X0314363Y0255165D01*
X0314431Y0255236D01*
X0314496Y0255309D01*
X0314558Y0255385D01*
X0314618Y0255464D01*
X0314674Y0255544D01*
X0314727Y0255627D01*
X0314776Y0255711D01*
X0314823Y0255798D01*
X0314865Y0255886D01*
X0314905Y0255976D01*
X0314940Y0256068D01*
X0314973Y0256160D01*
X0315001Y0256254D01*
X0315026Y0256349D01*
X0315047Y0256445D01*
X0315064Y0256542D01*
X0315078Y0256639D01*
X0315087Y0256737D01*
X0315093Y0256835D01*
X0315095Y0256933D01*
X0315095Y0275933D01*
X0315093Y0276031D01*
X0315087Y0276129D01*
X0315078Y0276227D01*
X0315064Y0276324D01*
X0315047Y0276421D01*
X0315026Y0276517D01*
X0315001Y0276612D01*
X0314973Y0276706D01*
X0314940Y0276798D01*
X0314905Y0276890D01*
X0314865Y0276980D01*
X0314823Y0277068D01*
X0314776Y0277155D01*
X0314727Y0277239D01*
X0314674Y0277322D01*
X0314618Y0277402D01*
X0314558Y0277481D01*
X0314496Y0277557D01*
X0314431Y0277630D01*
X0314363Y0277701D01*
X0314292Y0277769D01*
X0314219Y0277834D01*
X0314143Y0277896D01*
X0314064Y0277956D01*
X0313984Y0278012D01*
X0313901Y0278065D01*
X0313817Y0278114D01*
X0313730Y0278161D01*
X0313642Y0278203D01*
X0313552Y0278243D01*
X0313460Y0278278D01*
X0313368Y0278311D01*
X0313274Y0278339D01*
X0313179Y0278364D01*
X0313083Y0278385D01*
X0312986Y0278402D01*
X0312889Y0278416D01*
X0312791Y0278425D01*
X0312693Y0278431D01*
X0312595Y0278433D01*
X0067595Y0278433D01*
X0067497Y0278431D01*
X0067399Y0278425D01*
X0067301Y0278416D01*
X0067204Y0278402D01*
X0067107Y0278385D01*
X0067011Y0278364D01*
X0066916Y0278339D01*
X0066822Y0278311D01*
X0066730Y0278278D01*
X0066638Y0278243D01*
X0066548Y0278203D01*
X0066460Y0278161D01*
X0066373Y0278114D01*
X0066289Y0278065D01*
X0066206Y0278012D01*
X0066126Y0277956D01*
X0066047Y0277896D01*
X0065971Y0277834D01*
X0065898Y0277769D01*
X0065827Y0277701D01*
X0065759Y0277630D01*
X0065694Y0277557D01*
X0065632Y0277481D01*
X0065572Y0277402D01*
X0065516Y0277322D01*
X0065463Y0277239D01*
X0065414Y0277155D01*
X0065367Y0277068D01*
X0065325Y0276980D01*
X0065285Y0276890D01*
X0065250Y0276798D01*
X0065217Y0276706D01*
X0065189Y0276612D01*
X0065164Y0276517D01*
X0065143Y0276421D01*
X0065126Y0276324D01*
X0065112Y0276227D01*
X0065103Y0276129D01*
X0065097Y0276031D01*
X0065095Y0275933D01*
X0065095Y0256933D01*
X0065097Y0256835D01*
X0065103Y0256737D01*
X0065112Y0256639D01*
X0065126Y0256542D01*
X0065143Y0256445D01*
X0065164Y0256349D01*
X0065189Y0256254D01*
X0065217Y0256160D01*
X0065250Y0256068D01*
X0065285Y0255976D01*
X0065325Y0255886D01*
X0065367Y0255798D01*
X0065414Y0255711D01*
X0065463Y0255627D01*
X0065516Y0255544D01*
X0065572Y0255464D01*
X0065632Y0255385D01*
X0065694Y0255309D01*
X0065759Y0255236D01*
X0065827Y0255165D01*
X0065898Y0255097D01*
X0065971Y0255032D01*
X0066047Y0254970D01*
X0066126Y0254910D01*
X0066206Y0254854D01*
X0066289Y0254801D01*
X0066373Y0254752D01*
X0066460Y0254705D01*
X0066548Y0254663D01*
X0066638Y0254623D01*
X0066730Y0254588D01*
X0066822Y0254555D01*
X0066916Y0254527D01*
X0067011Y0254502D01*
X0067107Y0254481D01*
X0067204Y0254464D01*
X0067301Y0254450D01*
X0067399Y0254441D01*
X0067497Y0254435D01*
X0067595Y0254433D01*
D13*
X0067791Y0050668D02*
X0072395Y0050668D01*
X0072395Y0052202D02*
X0072395Y0049133D01*
X0069326Y0049133D02*
X0067791Y0050668D01*
X0062395Y0061633D02*
X0057791Y0061633D01*
X0057791Y0063935D01*
X0058559Y0064702D01*
X0060093Y0064702D01*
X0060861Y0063935D01*
X0060861Y0061633D01*
X0062395Y0066237D02*
X0062395Y0069306D01*
X0062395Y0067772D02*
X0057791Y0067772D01*
X0059326Y0066237D01*
X0148312Y0154933D02*
X0148314Y0155112D01*
X0148321Y0155290D01*
X0148332Y0155469D01*
X0148347Y0155647D01*
X0148367Y0155825D01*
X0148391Y0156002D01*
X0148419Y0156178D01*
X0148452Y0156354D01*
X0148489Y0156529D01*
X0148530Y0156703D01*
X0148576Y0156875D01*
X0148626Y0157047D01*
X0148680Y0157218D01*
X0148738Y0157387D01*
X0148800Y0157554D01*
X0148866Y0157720D01*
X0148937Y0157884D01*
X0149011Y0158047D01*
X0149090Y0158208D01*
X0149172Y0158366D01*
X0149258Y0158523D01*
X0149348Y0158677D01*
X0149442Y0158829D01*
X0149539Y0158979D01*
X0149641Y0159127D01*
X0149745Y0159271D01*
X0149853Y0159414D01*
X0149965Y0159553D01*
X0150080Y0159690D01*
X0150199Y0159824D01*
X0150320Y0159955D01*
X0150445Y0160083D01*
X0150573Y0160208D01*
X0150704Y0160329D01*
X0150838Y0160448D01*
X0150975Y0160563D01*
X0151114Y0160675D01*
X0151257Y0160783D01*
X0151401Y0160887D01*
X0151549Y0160989D01*
X0151699Y0161086D01*
X0151851Y0161180D01*
X0152005Y0161270D01*
X0152162Y0161356D01*
X0152320Y0161438D01*
X0152481Y0161517D01*
X0152644Y0161591D01*
X0152808Y0161662D01*
X0152974Y0161728D01*
X0153141Y0161790D01*
X0153310Y0161848D01*
X0153481Y0161902D01*
X0153653Y0161952D01*
X0153825Y0161998D01*
X0153999Y0162039D01*
X0154174Y0162076D01*
X0154350Y0162109D01*
X0154526Y0162137D01*
X0154703Y0162161D01*
X0154881Y0162181D01*
X0155059Y0162196D01*
X0155238Y0162207D01*
X0155416Y0162214D01*
X0155595Y0162216D01*
X0155774Y0162214D01*
X0155952Y0162207D01*
X0156131Y0162196D01*
X0156309Y0162181D01*
X0156487Y0162161D01*
X0156664Y0162137D01*
X0156840Y0162109D01*
X0157016Y0162076D01*
X0157191Y0162039D01*
X0157365Y0161998D01*
X0157537Y0161952D01*
X0157709Y0161902D01*
X0157880Y0161848D01*
X0158049Y0161790D01*
X0158216Y0161728D01*
X0158382Y0161662D01*
X0158546Y0161591D01*
X0158709Y0161517D01*
X0158870Y0161438D01*
X0159028Y0161356D01*
X0159185Y0161270D01*
X0159339Y0161180D01*
X0159491Y0161086D01*
X0159641Y0160989D01*
X0159789Y0160887D01*
X0159933Y0160783D01*
X0160076Y0160675D01*
X0160215Y0160563D01*
X0160352Y0160448D01*
X0160486Y0160329D01*
X0160617Y0160208D01*
X0160745Y0160083D01*
X0160870Y0159955D01*
X0160991Y0159824D01*
X0161110Y0159690D01*
X0161225Y0159553D01*
X0161337Y0159414D01*
X0161445Y0159271D01*
X0161549Y0159127D01*
X0161651Y0158979D01*
X0161748Y0158829D01*
X0161842Y0158677D01*
X0161932Y0158523D01*
X0162018Y0158366D01*
X0162100Y0158208D01*
X0162179Y0158047D01*
X0162253Y0157884D01*
X0162324Y0157720D01*
X0162390Y0157554D01*
X0162452Y0157387D01*
X0162510Y0157218D01*
X0162564Y0157047D01*
X0162614Y0156875D01*
X0162660Y0156703D01*
X0162701Y0156529D01*
X0162738Y0156354D01*
X0162771Y0156178D01*
X0162799Y0156002D01*
X0162823Y0155825D01*
X0162843Y0155647D01*
X0162858Y0155469D01*
X0162869Y0155290D01*
X0162876Y0155112D01*
X0162878Y0154933D01*
X0162876Y0154754D01*
X0162869Y0154576D01*
X0162858Y0154397D01*
X0162843Y0154219D01*
X0162823Y0154041D01*
X0162799Y0153864D01*
X0162771Y0153688D01*
X0162738Y0153512D01*
X0162701Y0153337D01*
X0162660Y0153163D01*
X0162614Y0152991D01*
X0162564Y0152819D01*
X0162510Y0152648D01*
X0162452Y0152479D01*
X0162390Y0152312D01*
X0162324Y0152146D01*
X0162253Y0151982D01*
X0162179Y0151819D01*
X0162100Y0151658D01*
X0162018Y0151500D01*
X0161932Y0151343D01*
X0161842Y0151189D01*
X0161748Y0151037D01*
X0161651Y0150887D01*
X0161549Y0150739D01*
X0161445Y0150595D01*
X0161337Y0150452D01*
X0161225Y0150313D01*
X0161110Y0150176D01*
X0160991Y0150042D01*
X0160870Y0149911D01*
X0160745Y0149783D01*
X0160617Y0149658D01*
X0160486Y0149537D01*
X0160352Y0149418D01*
X0160215Y0149303D01*
X0160076Y0149191D01*
X0159933Y0149083D01*
X0159789Y0148979D01*
X0159641Y0148877D01*
X0159491Y0148780D01*
X0159339Y0148686D01*
X0159185Y0148596D01*
X0159028Y0148510D01*
X0158870Y0148428D01*
X0158709Y0148349D01*
X0158546Y0148275D01*
X0158382Y0148204D01*
X0158216Y0148138D01*
X0158049Y0148076D01*
X0157880Y0148018D01*
X0157709Y0147964D01*
X0157537Y0147914D01*
X0157365Y0147868D01*
X0157191Y0147827D01*
X0157016Y0147790D01*
X0156840Y0147757D01*
X0156664Y0147729D01*
X0156487Y0147705D01*
X0156309Y0147685D01*
X0156131Y0147670D01*
X0155952Y0147659D01*
X0155774Y0147652D01*
X0155595Y0147650D01*
X0155416Y0147652D01*
X0155238Y0147659D01*
X0155059Y0147670D01*
X0154881Y0147685D01*
X0154703Y0147705D01*
X0154526Y0147729D01*
X0154350Y0147757D01*
X0154174Y0147790D01*
X0153999Y0147827D01*
X0153825Y0147868D01*
X0153653Y0147914D01*
X0153481Y0147964D01*
X0153310Y0148018D01*
X0153141Y0148076D01*
X0152974Y0148138D01*
X0152808Y0148204D01*
X0152644Y0148275D01*
X0152481Y0148349D01*
X0152320Y0148428D01*
X0152162Y0148510D01*
X0152005Y0148596D01*
X0151851Y0148686D01*
X0151699Y0148780D01*
X0151549Y0148877D01*
X0151401Y0148979D01*
X0151257Y0149083D01*
X0151114Y0149191D01*
X0150975Y0149303D01*
X0150838Y0149418D01*
X0150704Y0149537D01*
X0150573Y0149658D01*
X0150445Y0149783D01*
X0150320Y0149911D01*
X0150199Y0150042D01*
X0150080Y0150176D01*
X0149965Y0150313D01*
X0149853Y0150452D01*
X0149745Y0150595D01*
X0149641Y0150739D01*
X0149539Y0150887D01*
X0149442Y0151037D01*
X0149348Y0151189D01*
X0149258Y0151343D01*
X0149172Y0151500D01*
X0149090Y0151658D01*
X0149011Y0151819D01*
X0148937Y0151982D01*
X0148866Y0152146D01*
X0148800Y0152312D01*
X0148738Y0152479D01*
X0148680Y0152648D01*
X0148626Y0152819D01*
X0148576Y0152991D01*
X0148530Y0153163D01*
X0148489Y0153337D01*
X0148452Y0153512D01*
X0148419Y0153688D01*
X0148391Y0153864D01*
X0148367Y0154041D01*
X0148347Y0154219D01*
X0148332Y0154397D01*
X0148321Y0154576D01*
X0148314Y0154754D01*
X0148312Y0154933D01*
X0148312Y0234933D02*
X0148314Y0235112D01*
X0148321Y0235290D01*
X0148332Y0235469D01*
X0148347Y0235647D01*
X0148367Y0235825D01*
X0148391Y0236002D01*
X0148419Y0236178D01*
X0148452Y0236354D01*
X0148489Y0236529D01*
X0148530Y0236703D01*
X0148576Y0236875D01*
X0148626Y0237047D01*
X0148680Y0237218D01*
X0148738Y0237387D01*
X0148800Y0237554D01*
X0148866Y0237720D01*
X0148937Y0237884D01*
X0149011Y0238047D01*
X0149090Y0238208D01*
X0149172Y0238366D01*
X0149258Y0238523D01*
X0149348Y0238677D01*
X0149442Y0238829D01*
X0149539Y0238979D01*
X0149641Y0239127D01*
X0149745Y0239271D01*
X0149853Y0239414D01*
X0149965Y0239553D01*
X0150080Y0239690D01*
X0150199Y0239824D01*
X0150320Y0239955D01*
X0150445Y0240083D01*
X0150573Y0240208D01*
X0150704Y0240329D01*
X0150838Y0240448D01*
X0150975Y0240563D01*
X0151114Y0240675D01*
X0151257Y0240783D01*
X0151401Y0240887D01*
X0151549Y0240989D01*
X0151699Y0241086D01*
X0151851Y0241180D01*
X0152005Y0241270D01*
X0152162Y0241356D01*
X0152320Y0241438D01*
X0152481Y0241517D01*
X0152644Y0241591D01*
X0152808Y0241662D01*
X0152974Y0241728D01*
X0153141Y0241790D01*
X0153310Y0241848D01*
X0153481Y0241902D01*
X0153653Y0241952D01*
X0153825Y0241998D01*
X0153999Y0242039D01*
X0154174Y0242076D01*
X0154350Y0242109D01*
X0154526Y0242137D01*
X0154703Y0242161D01*
X0154881Y0242181D01*
X0155059Y0242196D01*
X0155238Y0242207D01*
X0155416Y0242214D01*
X0155595Y0242216D01*
X0155774Y0242214D01*
X0155952Y0242207D01*
X0156131Y0242196D01*
X0156309Y0242181D01*
X0156487Y0242161D01*
X0156664Y0242137D01*
X0156840Y0242109D01*
X0157016Y0242076D01*
X0157191Y0242039D01*
X0157365Y0241998D01*
X0157537Y0241952D01*
X0157709Y0241902D01*
X0157880Y0241848D01*
X0158049Y0241790D01*
X0158216Y0241728D01*
X0158382Y0241662D01*
X0158546Y0241591D01*
X0158709Y0241517D01*
X0158870Y0241438D01*
X0159028Y0241356D01*
X0159185Y0241270D01*
X0159339Y0241180D01*
X0159491Y0241086D01*
X0159641Y0240989D01*
X0159789Y0240887D01*
X0159933Y0240783D01*
X0160076Y0240675D01*
X0160215Y0240563D01*
X0160352Y0240448D01*
X0160486Y0240329D01*
X0160617Y0240208D01*
X0160745Y0240083D01*
X0160870Y0239955D01*
X0160991Y0239824D01*
X0161110Y0239690D01*
X0161225Y0239553D01*
X0161337Y0239414D01*
X0161445Y0239271D01*
X0161549Y0239127D01*
X0161651Y0238979D01*
X0161748Y0238829D01*
X0161842Y0238677D01*
X0161932Y0238523D01*
X0162018Y0238366D01*
X0162100Y0238208D01*
X0162179Y0238047D01*
X0162253Y0237884D01*
X0162324Y0237720D01*
X0162390Y0237554D01*
X0162452Y0237387D01*
X0162510Y0237218D01*
X0162564Y0237047D01*
X0162614Y0236875D01*
X0162660Y0236703D01*
X0162701Y0236529D01*
X0162738Y0236354D01*
X0162771Y0236178D01*
X0162799Y0236002D01*
X0162823Y0235825D01*
X0162843Y0235647D01*
X0162858Y0235469D01*
X0162869Y0235290D01*
X0162876Y0235112D01*
X0162878Y0234933D01*
X0162876Y0234754D01*
X0162869Y0234576D01*
X0162858Y0234397D01*
X0162843Y0234219D01*
X0162823Y0234041D01*
X0162799Y0233864D01*
X0162771Y0233688D01*
X0162738Y0233512D01*
X0162701Y0233337D01*
X0162660Y0233163D01*
X0162614Y0232991D01*
X0162564Y0232819D01*
X0162510Y0232648D01*
X0162452Y0232479D01*
X0162390Y0232312D01*
X0162324Y0232146D01*
X0162253Y0231982D01*
X0162179Y0231819D01*
X0162100Y0231658D01*
X0162018Y0231500D01*
X0161932Y0231343D01*
X0161842Y0231189D01*
X0161748Y0231037D01*
X0161651Y0230887D01*
X0161549Y0230739D01*
X0161445Y0230595D01*
X0161337Y0230452D01*
X0161225Y0230313D01*
X0161110Y0230176D01*
X0160991Y0230042D01*
X0160870Y0229911D01*
X0160745Y0229783D01*
X0160617Y0229658D01*
X0160486Y0229537D01*
X0160352Y0229418D01*
X0160215Y0229303D01*
X0160076Y0229191D01*
X0159933Y0229083D01*
X0159789Y0228979D01*
X0159641Y0228877D01*
X0159491Y0228780D01*
X0159339Y0228686D01*
X0159185Y0228596D01*
X0159028Y0228510D01*
X0158870Y0228428D01*
X0158709Y0228349D01*
X0158546Y0228275D01*
X0158382Y0228204D01*
X0158216Y0228138D01*
X0158049Y0228076D01*
X0157880Y0228018D01*
X0157709Y0227964D01*
X0157537Y0227914D01*
X0157365Y0227868D01*
X0157191Y0227827D01*
X0157016Y0227790D01*
X0156840Y0227757D01*
X0156664Y0227729D01*
X0156487Y0227705D01*
X0156309Y0227685D01*
X0156131Y0227670D01*
X0155952Y0227659D01*
X0155774Y0227652D01*
X0155595Y0227650D01*
X0155416Y0227652D01*
X0155238Y0227659D01*
X0155059Y0227670D01*
X0154881Y0227685D01*
X0154703Y0227705D01*
X0154526Y0227729D01*
X0154350Y0227757D01*
X0154174Y0227790D01*
X0153999Y0227827D01*
X0153825Y0227868D01*
X0153653Y0227914D01*
X0153481Y0227964D01*
X0153310Y0228018D01*
X0153141Y0228076D01*
X0152974Y0228138D01*
X0152808Y0228204D01*
X0152644Y0228275D01*
X0152481Y0228349D01*
X0152320Y0228428D01*
X0152162Y0228510D01*
X0152005Y0228596D01*
X0151851Y0228686D01*
X0151699Y0228780D01*
X0151549Y0228877D01*
X0151401Y0228979D01*
X0151257Y0229083D01*
X0151114Y0229191D01*
X0150975Y0229303D01*
X0150838Y0229418D01*
X0150704Y0229537D01*
X0150573Y0229658D01*
X0150445Y0229783D01*
X0150320Y0229911D01*
X0150199Y0230042D01*
X0150080Y0230176D01*
X0149965Y0230313D01*
X0149853Y0230452D01*
X0149745Y0230595D01*
X0149641Y0230739D01*
X0149539Y0230887D01*
X0149442Y0231037D01*
X0149348Y0231189D01*
X0149258Y0231343D01*
X0149172Y0231500D01*
X0149090Y0231658D01*
X0149011Y0231819D01*
X0148937Y0231982D01*
X0148866Y0232146D01*
X0148800Y0232312D01*
X0148738Y0232479D01*
X0148680Y0232648D01*
X0148626Y0232819D01*
X0148576Y0232991D01*
X0148530Y0233163D01*
X0148489Y0233337D01*
X0148452Y0233512D01*
X0148419Y0233688D01*
X0148391Y0233864D01*
X0148367Y0234041D01*
X0148347Y0234219D01*
X0148332Y0234397D01*
X0148321Y0234576D01*
X0148314Y0234754D01*
X0148312Y0234933D01*
X0072395Y0249133D02*
X0072395Y0252202D01*
X0072395Y0250668D02*
X0067791Y0250668D01*
X0069326Y0249133D01*
X0062395Y0261633D02*
X0057791Y0261633D01*
X0057791Y0263935D01*
X0058559Y0264702D01*
X0060093Y0264702D01*
X0060861Y0263935D01*
X0060861Y0261633D01*
X0062395Y0266237D02*
X0059326Y0269306D01*
X0058559Y0269306D01*
X0057791Y0268539D01*
X0057791Y0267004D01*
X0058559Y0266237D01*
X0062395Y0266237D02*
X0062395Y0269306D01*
D14*
X0061095Y0215433D02*
X0083595Y0215433D01*
X0083595Y0205433D02*
X0061095Y0205433D01*
X0061095Y0195433D02*
X0083595Y0195433D01*
X0083595Y0173933D02*
X0061095Y0173933D01*
X0061095Y0163933D02*
X0083595Y0163933D01*
X0083595Y0153933D02*
X0061095Y0153933D01*
X0061095Y0143933D02*
X0083595Y0143933D01*
X0083595Y0122933D02*
X0061095Y0122933D01*
X0061095Y0112933D02*
X0083595Y0112933D01*
X0083595Y0102933D02*
X0061095Y0102933D01*
D15*
X0085095Y0102933D03*
X0085095Y0112933D03*
X0085095Y0122933D03*
X0085095Y0143933D03*
X0085095Y0153933D03*
X0085095Y0163933D03*
X0085095Y0173933D03*
X0085095Y0195433D03*
X0085095Y0205433D03*
X0085095Y0215433D03*
D16*
X0098095Y0215433D03*
X0098095Y0205433D03*
X0098095Y0195433D03*
X0098095Y0173933D03*
X0098095Y0163933D03*
X0098095Y0153933D03*
X0098095Y0143933D03*
X0098095Y0122933D03*
X0098095Y0112933D03*
X0098095Y0102933D03*
D17*
X0146146Y0145484D02*
X0146146Y0150012D01*
X0146146Y0145484D02*
X0165044Y0145484D01*
X0165044Y0146665D01*
X0165044Y0153949D02*
X0165044Y0155917D01*
X0165044Y0162807D02*
X0165044Y0164382D01*
X0146146Y0164382D01*
X0146146Y0159854D01*
X0146146Y0225484D02*
X0146146Y0230012D01*
X0146146Y0225484D02*
X0165044Y0225484D01*
X0165044Y0226665D01*
X0165044Y0233949D02*
X0165044Y0235917D01*
X0165044Y0242807D02*
X0165044Y0244382D01*
X0146146Y0244382D01*
X0146146Y0239854D01*
D18*
X0155595Y0235031D03*
X0155595Y0155031D03*
D19*
X0155694Y0154933D03*
X0155694Y0234933D03*
M02*
