G75*
%MOIN*%
%OFA0B0*%
%FSLAX25Y25*%
%IPPOS*%
%LPD*%
%AMOC8*
5,1,8,0,0,1.08239X$1,22.5*
%
%ADD10C,0.11824*%
%ADD11R,0.05131X0.04737*%
%ADD12R,0.04934X0.05052*%
%ADD13R,0.04737X0.05131*%
%ADD14R,0.04737X0.04737*%
%ADD15C,0.01378*%
%ADD16C,0.00787*%
%ADD17C,0.06400*%
%ADD18OC8,0.06400*%
%ADD19R,0.05800X0.04737*%
%ADD20C,0.03981*%
%ADD21R,0.04737X0.05524*%
%ADD22C,0.06800*%
%ADD23R,0.02000X0.03600*%
%ADD24R,0.09900X0.10637*%
%ADD25R,0.09900X0.06700*%
%ADD26R,0.05918X0.05918*%
%ADD27R,0.05918X0.08674*%
%ADD28C,0.04762*%
%ADD29C,0.03581*%
%ADD30C,0.03975*%
%ADD31C,0.04369*%
D10*
X0155595Y0154933D03*
X0155595Y0234933D03*
D11*
X0128997Y0223008D03*
X0122304Y0223008D03*
X0125595Y0229587D03*
X0117595Y0229587D03*
X0117595Y0236280D03*
X0125595Y0236280D03*
X0109595Y0236280D03*
X0109595Y0229587D03*
X0120595Y0187780D03*
X0128595Y0187780D03*
X0128595Y0181087D03*
X0120595Y0181087D03*
X0123095Y0136280D03*
X0115095Y0136280D03*
X0115095Y0129587D03*
X0123095Y0129587D03*
X0119595Y0116280D03*
X0127595Y0116280D03*
X0127595Y0109587D03*
X0127595Y0104280D03*
X0135595Y0104280D03*
X0143595Y0104280D03*
X0143595Y0097587D03*
X0135595Y0097587D03*
X0127595Y0097587D03*
X0119595Y0109587D03*
X0144095Y0129587D03*
X0144095Y0136280D03*
X0210595Y0111780D03*
X0218595Y0111780D03*
X0218595Y0105087D03*
X0210595Y0105087D03*
X0241095Y0089780D03*
X0249095Y0089780D03*
X0257095Y0089780D03*
X0270095Y0089780D03*
X0270095Y0083087D03*
X0257095Y0083087D03*
X0249095Y0083087D03*
X0241095Y0083087D03*
X0262095Y0098587D03*
X0270095Y0098587D03*
X0270095Y0105280D03*
X0262095Y0105280D03*
X0280095Y0105280D03*
X0280095Y0098587D03*
X0280095Y0089780D03*
X0288095Y0089780D03*
X0288095Y0083087D03*
X0280095Y0083087D03*
X0272442Y0126433D03*
X0265749Y0126433D03*
X0280095Y0140087D03*
X0280095Y0146780D03*
X0302339Y0138510D03*
X0309032Y0138510D03*
X0316595Y0163087D03*
X0316595Y0169780D03*
X0284262Y0179941D03*
X0277570Y0179941D03*
X0268442Y0186433D03*
X0261749Y0186433D03*
X0261749Y0194433D03*
X0268442Y0194433D03*
X0302516Y0193923D03*
X0309209Y0193923D03*
X0300095Y0228087D03*
X0290095Y0228087D03*
X0290095Y0234780D03*
X0300095Y0234780D03*
X0300095Y0243087D03*
X0300095Y0249780D03*
X0308095Y0249780D03*
X0308095Y0243087D03*
X0290095Y0243087D03*
X0290095Y0249780D03*
X0282095Y0249780D03*
X0282095Y0243087D03*
X0245095Y0154780D03*
X0245095Y0148087D03*
D12*
X0261650Y0201433D03*
X0268540Y0201433D03*
D13*
X0308595Y0184280D03*
X0308595Y0177587D03*
X0308595Y0169780D03*
X0308595Y0163087D03*
X0300595Y0163087D03*
X0300595Y0169780D03*
X0293442Y0170433D03*
X0286749Y0170433D03*
X0286749Y0162433D03*
X0293442Y0162433D03*
X0308595Y0155280D03*
X0308595Y0148587D03*
X0288095Y0146780D03*
X0288095Y0140087D03*
X0255823Y0141709D03*
X0255823Y0135016D03*
X0133942Y0154933D03*
X0127249Y0154933D03*
X0131095Y0136280D03*
X0131095Y0129587D03*
X0120442Y0122933D03*
X0113749Y0122933D03*
X0132249Y0234933D03*
X0138942Y0234933D03*
D14*
X0268595Y0220370D03*
X0268595Y0212496D03*
X0300595Y0184370D03*
X0300595Y0176496D03*
X0300595Y0156370D03*
X0300595Y0148496D03*
X0280095Y0133370D03*
X0280095Y0125496D03*
D15*
X0273442Y0153520D02*
X0273442Y0155094D01*
X0271473Y0155094D02*
X0271473Y0153520D01*
X0269505Y0153520D02*
X0269505Y0155094D01*
X0267536Y0155094D02*
X0267536Y0153520D01*
X0265568Y0153520D02*
X0265568Y0155094D01*
X0263599Y0155094D02*
X0263599Y0153520D01*
X0261631Y0153520D02*
X0261631Y0155094D01*
X0259662Y0155094D02*
X0259662Y0153520D01*
X0258087Y0156669D02*
X0256512Y0156669D01*
X0256512Y0158638D02*
X0258087Y0158638D01*
X0258087Y0160606D02*
X0256512Y0160606D01*
X0256512Y0162575D02*
X0258087Y0162575D01*
X0258087Y0164543D02*
X0256512Y0164543D01*
X0256512Y0166512D02*
X0258087Y0166512D01*
X0258087Y0168480D02*
X0256512Y0168480D01*
X0256512Y0170449D02*
X0258087Y0170449D01*
X0259662Y0172024D02*
X0259662Y0173598D01*
X0261631Y0173598D02*
X0261631Y0172024D01*
X0263599Y0172024D02*
X0263599Y0173598D01*
X0265568Y0173598D02*
X0265568Y0172024D01*
X0267536Y0172024D02*
X0267536Y0173598D01*
X0269505Y0173598D02*
X0269505Y0172024D01*
X0271473Y0172024D02*
X0271473Y0173598D01*
X0273442Y0173598D02*
X0273442Y0172024D01*
X0275016Y0170449D02*
X0276591Y0170449D01*
X0276591Y0168480D02*
X0275016Y0168480D01*
X0275016Y0166512D02*
X0276591Y0166512D01*
X0276591Y0164543D02*
X0275016Y0164543D01*
X0275016Y0162575D02*
X0276591Y0162575D01*
X0276591Y0160606D02*
X0275016Y0160606D01*
X0275016Y0158638D02*
X0276591Y0158638D01*
X0276591Y0156669D02*
X0275016Y0156669D01*
D16*
X0273245Y0158047D02*
X0273245Y0170252D01*
X0259859Y0170252D01*
X0259859Y0156866D01*
X0272064Y0156866D01*
X0272060Y0157142D01*
X0272130Y0157409D01*
X0272267Y0157649D01*
X0272462Y0157844D01*
X0272702Y0157981D01*
X0272969Y0158050D01*
X0273245Y0158047D01*
X0272900Y0158033D02*
X0259859Y0158033D01*
X0259859Y0158819D02*
X0273245Y0158819D01*
X0273245Y0159605D02*
X0259859Y0159605D01*
X0259859Y0160390D02*
X0273245Y0160390D01*
X0273245Y0161176D02*
X0259859Y0161176D01*
X0259859Y0161962D02*
X0273245Y0161962D01*
X0273245Y0162748D02*
X0259859Y0162748D01*
X0259859Y0163534D02*
X0273245Y0163534D01*
X0273245Y0164320D02*
X0259859Y0164320D01*
X0259859Y0165106D02*
X0273245Y0165106D01*
X0273245Y0165892D02*
X0259859Y0165892D01*
X0259859Y0166678D02*
X0273245Y0166678D01*
X0273245Y0167464D02*
X0259859Y0167464D01*
X0259859Y0168250D02*
X0273245Y0168250D01*
X0273245Y0169035D02*
X0259859Y0169035D01*
X0259859Y0169821D02*
X0273245Y0169821D01*
X0272088Y0157247D02*
X0259859Y0157247D01*
D17*
X0070095Y0061433D03*
X0270095Y0061433D03*
X0270095Y0261433D03*
X0070095Y0261433D03*
D18*
X0080095Y0261433D03*
X0090095Y0261433D03*
X0100095Y0261433D03*
X0110095Y0261433D03*
X0120095Y0261433D03*
X0130095Y0261433D03*
X0130095Y0271433D03*
X0120095Y0271433D03*
X0110095Y0271433D03*
X0100095Y0271433D03*
X0090095Y0271433D03*
X0080095Y0271433D03*
X0070095Y0271433D03*
X0140095Y0271433D03*
X0150095Y0271433D03*
X0160095Y0271433D03*
X0170095Y0271433D03*
X0180095Y0271433D03*
X0190095Y0271433D03*
X0200095Y0271433D03*
X0200095Y0261433D03*
X0190095Y0261433D03*
X0180095Y0261433D03*
X0170095Y0261433D03*
X0160095Y0261433D03*
X0150095Y0261433D03*
X0140095Y0261433D03*
X0210095Y0261433D03*
X0220095Y0261433D03*
X0230095Y0261433D03*
X0240095Y0261433D03*
X0250095Y0261433D03*
X0260095Y0261433D03*
X0260095Y0271433D03*
X0250095Y0271433D03*
X0240095Y0271433D03*
X0230095Y0271433D03*
X0220095Y0271433D03*
X0210095Y0271433D03*
X0270095Y0271433D03*
X0280095Y0271433D03*
X0290095Y0271433D03*
X0300095Y0271433D03*
X0310095Y0271433D03*
X0310095Y0261433D03*
X0300095Y0261433D03*
X0290095Y0261433D03*
X0280095Y0261433D03*
X0280095Y0071433D03*
X0290095Y0071433D03*
X0300095Y0071433D03*
X0310095Y0071433D03*
X0310095Y0061433D03*
X0300095Y0061433D03*
X0290095Y0061433D03*
X0280095Y0061433D03*
X0270095Y0071433D03*
X0260095Y0071433D03*
X0250095Y0071433D03*
X0240095Y0071433D03*
X0230095Y0071433D03*
X0220095Y0071433D03*
X0210095Y0071433D03*
X0200095Y0071433D03*
X0190095Y0071433D03*
X0180095Y0071433D03*
X0170095Y0071433D03*
X0160095Y0071433D03*
X0150095Y0071433D03*
X0140095Y0071433D03*
X0130095Y0071433D03*
X0120095Y0071433D03*
X0110095Y0071433D03*
X0100095Y0071433D03*
X0090095Y0071433D03*
X0080095Y0071433D03*
X0070095Y0071433D03*
X0080095Y0061433D03*
X0090095Y0061433D03*
X0100095Y0061433D03*
X0110095Y0061433D03*
X0120095Y0061433D03*
X0130095Y0061433D03*
X0140095Y0061433D03*
X0150095Y0061433D03*
X0160095Y0061433D03*
X0170095Y0061433D03*
X0180095Y0061433D03*
X0190095Y0061433D03*
X0200095Y0061433D03*
X0210095Y0061433D03*
X0220095Y0061433D03*
X0230095Y0061433D03*
X0240095Y0061433D03*
X0250095Y0061433D03*
X0260095Y0061433D03*
D19*
X0316030Y0162398D03*
X0316030Y0170321D03*
D20*
X0452349Y0161463D03*
X0457320Y0171256D03*
D21*
X0267851Y0139780D03*
X0262339Y0139780D03*
X0262339Y0133087D03*
X0267851Y0133087D03*
D22*
X0106595Y0122933D02*
X0100595Y0122933D01*
X0100595Y0112933D02*
X0106595Y0112933D01*
X0106595Y0102933D02*
X0100595Y0102933D01*
X0100595Y0143933D02*
X0106595Y0143933D01*
X0106595Y0153933D02*
X0100595Y0153933D01*
X0100595Y0163933D02*
X0106595Y0163933D01*
X0106595Y0173933D02*
X0100595Y0173933D01*
X0100595Y0195433D02*
X0106595Y0195433D01*
X0106595Y0205433D02*
X0100595Y0205433D01*
X0100595Y0215433D02*
X0106595Y0215433D01*
D23*
X0123695Y0216802D03*
X0125595Y0216802D03*
X0127595Y0216802D03*
X0129595Y0216802D03*
X0131495Y0216802D03*
X0131495Y0201065D03*
X0129595Y0201065D03*
X0127595Y0201065D03*
X0125595Y0201065D03*
X0123695Y0201065D03*
X0134695Y0123833D03*
X0136595Y0123833D03*
X0138595Y0123833D03*
X0140595Y0123833D03*
X0142495Y0123833D03*
X0142495Y0112033D03*
X0140595Y0112033D03*
X0138595Y0112033D03*
X0136595Y0112033D03*
X0134695Y0112033D03*
D24*
X0127195Y0208733D03*
D25*
X0138995Y0118133D03*
D26*
X0166422Y0150406D03*
X0166422Y0159461D03*
X0166422Y0230406D03*
X0166422Y0239461D03*
D27*
X0144768Y0234933D03*
X0144768Y0154933D03*
D28*
X0295351Y0138411D03*
X0302241Y0128569D03*
X0310115Y0128569D03*
X0315489Y0132506D03*
X0315489Y0124632D03*
X0315489Y0116758D03*
X0315489Y0108884D03*
X0315489Y0101010D03*
X0315489Y0093136D03*
X0315489Y0085262D03*
X0315489Y0077388D03*
X0315489Y0067014D03*
X0315489Y0054140D03*
X0315489Y0140380D03*
X0315489Y0148254D03*
X0315489Y0156128D03*
X0315489Y0175813D03*
X0315489Y0183687D03*
X0315489Y0191561D03*
X0315489Y0199435D03*
X0310115Y0203372D03*
X0315489Y0207309D03*
X0315489Y0215183D03*
X0315489Y0223057D03*
X0315489Y0230931D03*
X0315489Y0238805D03*
X0315489Y0246679D03*
X0315489Y0254553D03*
X0314989Y0265927D03*
X0315489Y0280301D03*
X0300095Y0221433D03*
X0302241Y0203372D03*
X0295351Y0193530D03*
D29*
X0290036Y0203402D03*
X0282536Y0210902D03*
X0280036Y0218402D03*
X0275036Y0220902D03*
X0262536Y0220902D03*
X0262536Y0215902D03*
X0262536Y0208402D03*
X0255823Y0210144D03*
X0243323Y0212644D03*
X0243323Y0202644D03*
X0240823Y0197644D03*
X0243323Y0187644D03*
X0215823Y0190144D03*
X0216190Y0179130D03*
X0203690Y0179130D03*
X0187690Y0171630D03*
X0179690Y0179130D03*
X0161690Y0178630D03*
X0144190Y0164630D03*
X0128190Y0164630D03*
X0121190Y0169630D03*
X0116190Y0175630D03*
X0114690Y0184130D03*
X0107690Y0184130D03*
X0101190Y0184130D03*
X0096095Y0189933D03*
X0084323Y0181644D03*
X0064323Y0186644D03*
X0081823Y0199144D03*
X0096095Y0199933D03*
X0111095Y0199433D03*
X0114095Y0196433D03*
X0111595Y0191433D03*
X0117095Y0202933D03*
X0124595Y0205433D03*
X0127595Y0208933D03*
X0130095Y0211933D03*
X0134095Y0212933D03*
X0134095Y0208933D03*
X0130095Y0205433D03*
X0134095Y0204933D03*
X0124595Y0211933D03*
X0119095Y0208933D03*
X0112095Y0210433D03*
X0117095Y0215433D03*
X0109595Y0222933D03*
X0096095Y0220933D03*
X0096095Y0225433D03*
X0089323Y0226644D03*
X0098323Y0232644D03*
X0098323Y0240144D03*
X0085823Y0245144D03*
X0076823Y0241644D03*
X0064323Y0236644D03*
X0076823Y0226644D03*
X0064323Y0224144D03*
X0081823Y0214144D03*
X0133595Y0222933D03*
X0139323Y0229144D03*
X0135823Y0240144D03*
X0135823Y0252644D03*
X0098323Y0252644D03*
X0095823Y0257644D03*
X0083323Y0252644D03*
X0064323Y0249144D03*
X0136190Y0191630D03*
X0135190Y0179630D03*
X0112690Y0164130D03*
X0112690Y0159130D03*
X0112690Y0154130D03*
X0123190Y0147630D03*
X0130690Y0147630D03*
X0131095Y0141433D03*
X0137595Y0141433D03*
X0138095Y0137433D03*
X0144095Y0140433D03*
X0152690Y0141130D03*
X0152690Y0136130D03*
X0152690Y0131130D03*
X0152690Y0126130D03*
X0145595Y0123933D03*
X0152690Y0121130D03*
X0152690Y0116130D03*
X0146095Y0117933D03*
X0142434Y0118189D03*
X0139284Y0118189D03*
X0136135Y0118189D03*
X0146095Y0113433D03*
X0152690Y0111130D03*
X0150190Y0106130D03*
X0150190Y0101130D03*
X0155190Y0101130D03*
X0160190Y0101130D03*
X0165190Y0101130D03*
X0170190Y0101130D03*
X0177690Y0101130D03*
X0185190Y0101130D03*
X0185190Y0106130D03*
X0185190Y0111130D03*
X0185190Y0116130D03*
X0180690Y0117630D03*
X0185190Y0121130D03*
X0185190Y0126130D03*
X0185190Y0131130D03*
X0185190Y0136130D03*
X0178190Y0140130D03*
X0185690Y0145130D03*
X0182190Y0155630D03*
X0176690Y0161130D03*
X0171190Y0159630D03*
X0166690Y0164130D03*
X0145690Y0147630D03*
X0163190Y0137630D03*
X0173190Y0130130D03*
X0163190Y0122630D03*
X0173190Y0110130D03*
X0160690Y0107630D03*
X0135690Y0090130D03*
X0127595Y0093433D03*
X0121595Y0097933D03*
X0118095Y0094933D03*
X0112095Y0094933D03*
X0105595Y0094933D03*
X0098095Y0094933D03*
X0109012Y0087496D03*
X0114091Y0087496D03*
X0098190Y0085130D03*
X0088190Y0095130D03*
X0079642Y0092732D03*
X0080690Y0082630D03*
X0068190Y0082630D03*
X0064323Y0106644D03*
X0064323Y0119144D03*
X0081690Y0131630D03*
X0068190Y0135130D03*
X0064323Y0149144D03*
X0064323Y0169144D03*
X0094690Y0164130D03*
X0094690Y0154130D03*
X0117095Y0141433D03*
X0124595Y0141433D03*
X0098095Y0130433D03*
X0096595Y0117933D03*
X0111595Y0106933D03*
X0114095Y0101933D03*
X0121595Y0103933D03*
X0155190Y0085630D03*
X0170190Y0087630D03*
X0190690Y0080130D03*
X0195690Y0085130D03*
X0205690Y0087630D03*
X0213190Y0080130D03*
X0204190Y0112630D03*
X0208690Y0118630D03*
X0200190Y0125130D03*
X0202690Y0132630D03*
X0199690Y0143130D03*
X0204690Y0144130D03*
X0203690Y0156630D03*
X0196690Y0162630D03*
X0215690Y0156630D03*
X0252280Y0158130D03*
X0252280Y0153693D03*
X0259662Y0150280D03*
X0263599Y0150280D03*
X0272703Y0148785D03*
X0267599Y0144280D03*
X0280203Y0155535D03*
X0282784Y0159138D03*
X0270489Y0159622D03*
X0270489Y0163559D03*
X0266552Y0163559D03*
X0266552Y0159622D03*
X0262615Y0159622D03*
X0262615Y0163559D03*
X0262615Y0167496D03*
X0266552Y0167496D03*
X0270489Y0167496D03*
X0279839Y0170941D03*
X0270489Y0176846D03*
X0280036Y0185902D03*
X0284422Y0185974D03*
X0280036Y0193402D03*
X0275036Y0203402D03*
X0275036Y0213402D03*
X0290036Y0220902D03*
X0295036Y0223402D03*
X0307536Y0225902D03*
X0307536Y0235902D03*
X0281886Y0234366D03*
X0266886Y0236866D03*
X0258323Y0235144D03*
X0251886Y0244366D03*
X0261886Y0249366D03*
X0276886Y0249366D03*
X0243323Y0235144D03*
X0243323Y0222644D03*
X0255823Y0222644D03*
X0220823Y0235144D03*
X0203323Y0247644D03*
X0190823Y0235144D03*
X0203690Y0221130D03*
X0215690Y0221630D03*
X0216190Y0206130D03*
X0204190Y0206130D03*
X0173323Y0252644D03*
X0295203Y0177535D03*
X0294690Y0156630D03*
X0292690Y0146630D03*
X0288323Y0132644D03*
X0285823Y0117644D03*
X0288323Y0097644D03*
X0293323Y0082644D03*
X0288323Y0077644D03*
X0138190Y0080130D03*
X0302536Y0213402D03*
D30*
X0256595Y0201433D03*
X0256595Y0197433D03*
X0256595Y0193933D03*
X0256595Y0190433D03*
X0256595Y0186433D03*
X0235095Y0187433D03*
X0250095Y0221433D03*
X0250095Y0233933D03*
X0275095Y0243933D03*
X0282595Y0254933D03*
X0307595Y0254933D03*
X0178658Y0240984D03*
X0176158Y0237984D03*
X0172158Y0236484D03*
X0172158Y0240484D03*
X0176827Y0222906D03*
X0171158Y0217984D03*
X0144347Y0222866D03*
X0140705Y0215248D03*
X0181595Y0150433D03*
X0200095Y0150433D03*
X0217595Y0118933D03*
X0247595Y0118933D03*
X0250595Y0124933D03*
X0260595Y0126433D03*
X0250595Y0134933D03*
X0255095Y0112433D03*
X0252595Y0106433D03*
X0262095Y0112433D03*
X0272095Y0112433D03*
X0276095Y0082933D03*
X0249095Y0078933D03*
X0218304Y0096433D03*
X0207095Y0096433D03*
X0138595Y0128933D03*
X0136095Y0132933D03*
X0125595Y0124433D03*
X0127595Y0120433D03*
D31*
X0144595Y0108933D03*
X0130095Y0196433D03*
M02*
